<?xml version="1.0" encoding="utf-8"?>
<svg xmlns="http://www.w3.org/2000/svg" xmlns:xlink="http://www.w3.org/1999/xlink" xml:space="preserve" width="984" height="984" viewBox="0 0 984 984"><g fill="#ffffff">
<g transform="translate(240,48) scale(4.12)"><circle cx="3" cy="3" r="3"/></g>
<g transform="translate(288,48) scale(4.12)"><circle cx="3" cy="3" r="3"/></g>
<g transform="translate(312,48) scale(4.12)"><circle cx="3" cy="3" r="3"/></g>
<g transform="translate(384,48) scale(4.12)"><circle cx="3" cy="3" r="3"/></g>
<g transform="translate(456,48) scale(4.12)"><circle cx="3" cy="3" r="3"/></g>
<g transform="translate(552,48) scale(4.12)"><circle cx="3" cy="3" r="3"/></g>
<g transform="translate(600,48) scale(4.12)"><circle cx="3" cy="3" r="3"/></g>
<g transform="translate(672,48) scale(4.12)"><circle cx="3" cy="3" r="3"/></g>
<g transform="translate(720,48) scale(4.12)"><circle cx="3" cy="3" r="3"/></g>
<g transform="translate(240,72) scale(4.12)"><circle cx="3" cy="3" r="3"/></g>
<g transform="translate(312,72) scale(4.12)"><circle cx="3" cy="3" r="3"/></g>
<g transform="translate(336,72) scale(4.12)"><circle cx="3" cy="3" r="3"/></g>
<g transform="translate(384,72) scale(4.12)"><circle cx="3" cy="3" r="3"/></g>
<g transform="translate(456,72) scale(4.12)"><circle cx="3" cy="3" r="3"/></g>
<g transform="translate(528,72) scale(4.12)"><circle cx="3" cy="3" r="3"/></g>
<g transform="translate(576,72) scale(4.12)"><circle cx="3" cy="3" r="3"/></g>
<g transform="translate(600,72) scale(4.12)"><circle cx="3" cy="3" r="3"/></g>
<g transform="translate(624,72) scale(4.12)"><circle cx="3" cy="3" r="3"/></g>
<g transform="translate(672,72) scale(4.12)"><circle cx="3" cy="3" r="3"/></g>
<g transform="translate(696,72) scale(4.12)"><circle cx="3" cy="3" r="3"/></g>
<g transform="translate(720,72) scale(4.12)"><circle cx="3" cy="3" r="3"/></g>
<g transform="translate(240,96) scale(4.12)"><circle cx="3" cy="3" r="3"/></g>
<g transform="translate(264,96) scale(4.12)"><circle cx="3" cy="3" r="3"/></g>
<g transform="translate(288,96) scale(4.12)"><circle cx="3" cy="3" r="3"/></g>
<g transform="translate(336,96) scale(4.12)"><circle cx="3" cy="3" r="3"/></g>
<g transform="translate(360,96) scale(4.12)"><circle cx="3" cy="3" r="3"/></g>
<g transform="translate(384,96) scale(4.12)"><circle cx="3" cy="3" r="3"/></g>
<g transform="translate(432,96) scale(4.12)"><circle cx="3" cy="3" r="3"/></g>
<g transform="translate(480,96) scale(4.12)"><circle cx="3" cy="3" r="3"/></g>
<g transform="translate(504,96) scale(4.12)"><circle cx="3" cy="3" r="3"/></g>
<g transform="translate(576,96) scale(4.12)"><circle cx="3" cy="3" r="3"/></g>
<g transform="translate(600,96) scale(4.12)"><circle cx="3" cy="3" r="3"/></g>
<g transform="translate(696,96) scale(4.12)"><circle cx="3" cy="3" r="3"/></g>
<g transform="translate(720,96) scale(4.12)"><circle cx="3" cy="3" r="3"/></g>
<g transform="translate(360,120) scale(4.12)"><circle cx="3" cy="3" r="3"/></g>
<g transform="translate(408,120) scale(4.12)"><circle cx="3" cy="3" r="3"/></g>
<g transform="translate(432,120) scale(4.12)"><circle cx="3" cy="3" r="3"/></g>
<g transform="translate(552,120) scale(4.12)"><circle cx="3" cy="3" r="3"/></g>
<g transform="translate(600,120) scale(4.12)"><circle cx="3" cy="3" r="3"/></g>
<g transform="translate(648,120) scale(4.12)"><circle cx="3" cy="3" r="3"/></g>
<g transform="translate(264,144) scale(4.12)"><circle cx="3" cy="3" r="3"/></g>
<g transform="translate(288,144) scale(4.12)"><circle cx="3" cy="3" r="3"/></g>
<g transform="translate(408,144) scale(4.12)"><circle cx="3" cy="3" r="3"/></g>
<g transform="translate(432,144) scale(4.12)"><circle cx="3" cy="3" r="3"/></g>
<g transform="translate(504,144) scale(4.12)"><circle cx="3" cy="3" r="3"/></g>
<g transform="translate(624,144) scale(4.12)"><circle cx="3" cy="3" r="3"/></g>
<g transform="translate(672,144) scale(4.12)"><circle cx="3" cy="3" r="3"/></g>
<g transform="translate(240,168) scale(4.12)"><circle cx="3" cy="3" r="3"/></g>
<g transform="translate(288,168) scale(4.12)"><circle cx="3" cy="3" r="3"/></g>
<g transform="translate(336,168) scale(4.12)"><circle cx="3" cy="3" r="3"/></g>
<g transform="translate(384,168) scale(4.12)"><circle cx="3" cy="3" r="3"/></g>
<g transform="translate(480,168) scale(4.12)"><circle cx="3" cy="3" r="3"/></g>
<g transform="translate(504,168) scale(4.12)"><circle cx="3" cy="3" r="3"/></g>
<g transform="translate(576,168) scale(4.12)"><circle cx="3" cy="3" r="3"/></g>
<g transform="translate(600,168) scale(4.12)"><circle cx="3" cy="3" r="3"/></g>
<g transform="translate(624,168) scale(4.12)"><circle cx="3" cy="3" r="3"/></g>
<g transform="translate(672,168) scale(4.12)"><circle cx="3" cy="3" r="3"/></g>
<g transform="translate(696,168) scale(4.12)"><circle cx="3" cy="3" r="3"/></g>
<g transform="translate(720,168) scale(4.12)"><circle cx="3" cy="3" r="3"/></g>
<g transform="translate(240,192) scale(4.12)"><circle cx="3" cy="3" r="3"/></g>
<g transform="translate(288,192) scale(4.12)"><circle cx="3" cy="3" r="3"/></g>
<g transform="translate(336,192) scale(4.12)"><circle cx="3" cy="3" r="3"/></g>
<g transform="translate(384,192) scale(4.12)"><circle cx="3" cy="3" r="3"/></g>
<g transform="translate(432,192) scale(4.12)"><circle cx="3" cy="3" r="3"/></g>
<g transform="translate(480,192) scale(4.12)"><circle cx="3" cy="3" r="3"/></g>
<g transform="translate(528,192) scale(4.12)"><circle cx="3" cy="3" r="3"/></g>
<g transform="translate(576,192) scale(4.12)"><circle cx="3" cy="3" r="3"/></g>
<g transform="translate(624,192) scale(4.12)"><circle cx="3" cy="3" r="3"/></g>
<g transform="translate(672,192) scale(4.12)"><circle cx="3" cy="3" r="3"/></g>
<g transform="translate(720,192) scale(4.12)"><circle cx="3" cy="3" r="3"/></g>
<g transform="translate(240,216) scale(4.12)"><circle cx="3" cy="3" r="3"/></g>
<g transform="translate(288,216) scale(4.12)"><circle cx="3" cy="3" r="3"/></g>
<g transform="translate(408,216) scale(4.12)"><circle cx="3" cy="3" r="3"/></g>
<g transform="translate(456,216) scale(4.12)"><circle cx="3" cy="3" r="3"/></g>
<g transform="translate(480,216) scale(4.12)"><circle cx="3" cy="3" r="3"/></g>
<g transform="translate(504,216) scale(4.12)"><circle cx="3" cy="3" r="3"/></g>
<g transform="translate(552,216) scale(4.12)"><circle cx="3" cy="3" r="3"/></g>
<g transform="translate(576,216) scale(4.12)"><circle cx="3" cy="3" r="3"/></g>
<g transform="translate(624,216) scale(4.12)"><circle cx="3" cy="3" r="3"/></g>
<g transform="translate(648,216) scale(4.12)"><circle cx="3" cy="3" r="3"/></g>
<g transform="translate(672,216) scale(4.12)"><circle cx="3" cy="3" r="3"/></g>
<g transform="translate(720,216) scale(4.12)"><circle cx="3" cy="3" r="3"/></g>
<g transform="translate(96,240) scale(4.12)"><circle cx="3" cy="3" r="3"/></g>
<g transform="translate(120,240) scale(4.12)"><circle cx="3" cy="3" r="3"/></g>
<g transform="translate(144,240) scale(4.12)"><circle cx="3" cy="3" r="3"/></g>
<g transform="translate(192,240) scale(4.12)"><circle cx="3" cy="3" r="3"/></g>
<g transform="translate(240,240) scale(4.12)"><circle cx="3" cy="3" r="3"/></g>
<g transform="translate(288,240) scale(4.12)"><circle cx="3" cy="3" r="3"/></g>
<g transform="translate(312,240) scale(4.12)"><circle cx="3" cy="3" r="3"/></g>
<g transform="translate(408,240) scale(4.12)"><circle cx="3" cy="3" r="3"/></g>
<g transform="translate(432,240) scale(4.12)"><circle cx="3" cy="3" r="3"/></g>
<g transform="translate(456,240) scale(4.12)"><circle cx="3" cy="3" r="3"/></g>
<g transform="translate(480,240) scale(4.12)"><circle cx="3" cy="3" r="3"/></g>
<g transform="translate(528,240) scale(4.12)"><circle cx="3" cy="3" r="3"/></g>
<g transform="translate(552,240) scale(4.12)"><circle cx="3" cy="3" r="3"/></g>
<g transform="translate(576,240) scale(4.12)"><circle cx="3" cy="3" r="3"/></g>
<g transform="translate(600,240) scale(4.12)"><circle cx="3" cy="3" r="3"/></g>
<g transform="translate(624,240) scale(4.12)"><circle cx="3" cy="3" r="3"/></g>
<g transform="translate(648,240) scale(4.12)"><circle cx="3" cy="3" r="3"/></g>
<g transform="translate(720,240) scale(4.12)"><circle cx="3" cy="3" r="3"/></g>
<g transform="translate(744,240) scale(4.12)"><circle cx="3" cy="3" r="3"/></g>
<g transform="translate(768,240) scale(4.12)"><circle cx="3" cy="3" r="3"/></g>
<g transform="translate(792,240) scale(4.12)"><circle cx="3" cy="3" r="3"/></g>
<g transform="translate(864,240) scale(4.12)"><circle cx="3" cy="3" r="3"/></g>
<g transform="translate(888,240) scale(4.12)"><circle cx="3" cy="3" r="3"/></g>
<g transform="translate(912,240) scale(4.12)"><circle cx="3" cy="3" r="3"/></g>
<g transform="translate(48,264) scale(4.12)"><circle cx="3" cy="3" r="3"/></g>
<g transform="translate(120,264) scale(4.12)"><circle cx="3" cy="3" r="3"/></g>
<g transform="translate(144,264) scale(4.12)"><circle cx="3" cy="3" r="3"/></g>
<g transform="translate(216,264) scale(4.12)"><circle cx="3" cy="3" r="3"/></g>
<g transform="translate(288,264) scale(4.12)"><circle cx="3" cy="3" r="3"/></g>
<g transform="translate(312,264) scale(4.12)"><circle cx="3" cy="3" r="3"/></g>
<g transform="translate(336,264) scale(4.12)"><circle cx="3" cy="3" r="3"/></g>
<g transform="translate(360,264) scale(4.12)"><circle cx="3" cy="3" r="3"/></g>
<g transform="translate(408,264) scale(4.12)"><circle cx="3" cy="3" r="3"/></g>
<g transform="translate(456,264) scale(4.12)"><circle cx="3" cy="3" r="3"/></g>
<g transform="translate(480,264) scale(4.12)"><circle cx="3" cy="3" r="3"/></g>
<g transform="translate(504,264) scale(4.12)"><circle cx="3" cy="3" r="3"/></g>
<g transform="translate(552,264) scale(4.12)"><circle cx="3" cy="3" r="3"/></g>
<g transform="translate(576,264) scale(4.12)"><circle cx="3" cy="3" r="3"/></g>
<g transform="translate(648,264) scale(4.12)"><circle cx="3" cy="3" r="3"/></g>
<g transform="translate(696,264) scale(4.12)"><circle cx="3" cy="3" r="3"/></g>
<g transform="translate(720,264) scale(4.12)"><circle cx="3" cy="3" r="3"/></g>
<g transform="translate(744,264) scale(4.12)"><circle cx="3" cy="3" r="3"/></g>
<g transform="translate(792,264) scale(4.12)"><circle cx="3" cy="3" r="3"/></g>
<g transform="translate(840,264) scale(4.12)"><circle cx="3" cy="3" r="3"/></g>
<g transform="translate(864,264) scale(4.12)"><circle cx="3" cy="3" r="3"/></g>
<g transform="translate(888,264) scale(4.12)"><circle cx="3" cy="3" r="3"/></g>
<g transform="translate(120,288) scale(4.12)"><circle cx="3" cy="3" r="3"/></g>
<g transform="translate(168,288) scale(4.12)"><circle cx="3" cy="3" r="3"/></g>
<g transform="translate(192,288) scale(4.12)"><circle cx="3" cy="3" r="3"/></g>
<g transform="translate(264,288) scale(4.12)"><circle cx="3" cy="3" r="3"/></g>
<g transform="translate(288,288) scale(4.12)"><circle cx="3" cy="3" r="3"/></g>
<g transform="translate(360,288) scale(4.12)"><circle cx="3" cy="3" r="3"/></g>
<g transform="translate(456,288) scale(4.12)"><circle cx="3" cy="3" r="3"/></g>
<g transform="translate(480,288) scale(4.12)"><circle cx="3" cy="3" r="3"/></g>
<g transform="translate(504,288) scale(4.12)"><circle cx="3" cy="3" r="3"/></g>
<g transform="translate(600,288) scale(4.12)"><circle cx="3" cy="3" r="3"/></g>
<g transform="translate(648,288) scale(4.12)"><circle cx="3" cy="3" r="3"/></g>
<g transform="translate(672,288) scale(4.12)"><circle cx="3" cy="3" r="3"/></g>
<g transform="translate(768,288) scale(4.12)"><circle cx="3" cy="3" r="3"/></g>
<g transform="translate(792,288) scale(4.12)"><circle cx="3" cy="3" r="3"/></g>
<g transform="translate(840,288) scale(4.12)"><circle cx="3" cy="3" r="3"/></g>
<g transform="translate(912,288) scale(4.12)"><circle cx="3" cy="3" r="3"/></g>
<g transform="translate(48,312) scale(4.12)"><circle cx="3" cy="3" r="3"/></g>
<g transform="translate(96,312) scale(4.12)"><circle cx="3" cy="3" r="3"/></g>
<g transform="translate(144,312) scale(4.12)"><circle cx="3" cy="3" r="3"/></g>
<g transform="translate(264,312) scale(4.12)"><circle cx="3" cy="3" r="3"/></g>
<g transform="translate(336,312) scale(4.12)"><circle cx="3" cy="3" r="3"/></g>
<g transform="translate(360,312) scale(4.12)"><circle cx="3" cy="3" r="3"/></g>
<g transform="translate(408,312) scale(4.12)"><circle cx="3" cy="3" r="3"/></g>
<g transform="translate(480,312) scale(4.12)"><circle cx="3" cy="3" r="3"/></g>
<g transform="translate(504,312) scale(4.12)"><circle cx="3" cy="3" r="3"/></g>
<g transform="translate(528,312) scale(4.12)"><circle cx="3" cy="3" r="3"/></g>
<g transform="translate(576,312) scale(4.12)"><circle cx="3" cy="3" r="3"/></g>
<g transform="translate(600,312) scale(4.12)"><circle cx="3" cy="3" r="3"/></g>
<g transform="translate(624,312) scale(4.12)"><circle cx="3" cy="3" r="3"/></g>
<g transform="translate(672,312) scale(4.12)"><circle cx="3" cy="3" r="3"/></g>
<g transform="translate(696,312) scale(4.12)"><circle cx="3" cy="3" r="3"/></g>
<g transform="translate(720,312) scale(4.12)"><circle cx="3" cy="3" r="3"/></g>
<g transform="translate(768,312) scale(4.12)"><circle cx="3" cy="3" r="3"/></g>
<g transform="translate(792,312) scale(4.12)"><circle cx="3" cy="3" r="3"/></g>
<g transform="translate(888,312) scale(4.12)"><circle cx="3" cy="3" r="3"/></g>
<g transform="translate(912,312) scale(4.12)"><circle cx="3" cy="3" r="3"/></g>
<g transform="translate(72,336) scale(4.12)"><circle cx="3" cy="3" r="3"/></g>
<g transform="translate(96,336) scale(4.12)"><circle cx="3" cy="3" r="3"/></g>
<g transform="translate(144,336) scale(4.12)"><circle cx="3" cy="3" r="3"/></g>
<g transform="translate(168,336) scale(4.12)"><circle cx="3" cy="3" r="3"/></g>
<g transform="translate(192,336) scale(4.12)"><circle cx="3" cy="3" r="3"/></g>
<g transform="translate(216,336) scale(4.12)"><circle cx="3" cy="3" r="3"/></g>
<g transform="translate(288,336) scale(4.12)"><circle cx="3" cy="3" r="3"/></g>
<g transform="translate(312,336) scale(4.12)"><circle cx="3" cy="3" r="3"/></g>
<g transform="translate(336,336) scale(4.12)"><circle cx="3" cy="3" r="3"/></g>
<g transform="translate(360,336) scale(4.12)"><circle cx="3" cy="3" r="3"/></g>
<g transform="translate(432,336) scale(4.12)"><circle cx="3" cy="3" r="3"/></g>
<g transform="translate(528,336) scale(4.12)"><circle cx="3" cy="3" r="3"/></g>
<g transform="translate(624,336) scale(4.12)"><circle cx="3" cy="3" r="3"/></g>
<g transform="translate(648,336) scale(4.12)"><circle cx="3" cy="3" r="3"/></g>
<g transform="translate(672,336) scale(4.12)"><circle cx="3" cy="3" r="3"/></g>
<g transform="translate(744,336) scale(4.12)"><circle cx="3" cy="3" r="3"/></g>
<g transform="translate(768,336) scale(4.12)"><circle cx="3" cy="3" r="3"/></g>
<g transform="translate(816,336) scale(4.12)"><circle cx="3" cy="3" r="3"/></g>
<g transform="translate(840,336) scale(4.12)"><circle cx="3" cy="3" r="3"/></g>
<g transform="translate(864,336) scale(4.12)"><circle cx="3" cy="3" r="3"/></g>
<g transform="translate(912,336) scale(4.12)"><circle cx="3" cy="3" r="3"/></g>
<g transform="translate(144,360) scale(4.12)"><circle cx="3" cy="3" r="3"/></g>
<g transform="translate(240,360) scale(4.12)"><circle cx="3" cy="3" r="3"/></g>
<g transform="translate(288,360) scale(4.12)"><circle cx="3" cy="3" r="3"/></g>
<g transform="translate(360,360) scale(4.12)"><circle cx="3" cy="3" r="3"/></g>
<g transform="translate(456,360) scale(4.12)"><circle cx="3" cy="3" r="3"/></g>
<g transform="translate(552,360) scale(4.12)"><circle cx="3" cy="3" r="3"/></g>
<g transform="translate(576,360) scale(4.12)"><circle cx="3" cy="3" r="3"/></g>
<g transform="translate(672,360) scale(4.12)"><circle cx="3" cy="3" r="3"/></g>
<g transform="translate(720,360) scale(4.12)"><circle cx="3" cy="3" r="3"/></g>
<g transform="translate(744,360) scale(4.12)"><circle cx="3" cy="3" r="3"/></g>
<g transform="translate(792,360) scale(4.12)"><circle cx="3" cy="3" r="3"/></g>
<g transform="translate(840,360) scale(4.12)"><circle cx="3" cy="3" r="3"/></g>
<g transform="translate(864,360) scale(4.12)"><circle cx="3" cy="3" r="3"/></g>
<g transform="translate(48,384) scale(4.12)"><circle cx="3" cy="3" r="3"/></g>
<g transform="translate(144,384) scale(4.12)"><circle cx="3" cy="3" r="3"/></g>
<g transform="translate(168,384) scale(4.12)"><circle cx="3" cy="3" r="3"/></g>
<g transform="translate(192,384) scale(4.12)"><circle cx="3" cy="3" r="3"/></g>
<g transform="translate(216,384) scale(4.12)"><circle cx="3" cy="3" r="3"/></g>
<g transform="translate(264,384) scale(4.12)"><circle cx="3" cy="3" r="3"/></g>
<g transform="translate(312,384) scale(4.12)"><circle cx="3" cy="3" r="3"/></g>
<g transform="translate(336,384) scale(4.12)"><circle cx="3" cy="3" r="3"/></g>
<g transform="translate(432,384) scale(4.12)"><circle cx="3" cy="3" r="3"/></g>
<g transform="translate(552,384) scale(4.12)"><circle cx="3" cy="3" r="3"/></g>
<g transform="translate(576,384) scale(4.12)"><circle cx="3" cy="3" r="3"/></g>
<g transform="translate(624,384) scale(4.12)"><circle cx="3" cy="3" r="3"/></g>
<g transform="translate(648,384) scale(4.12)"><circle cx="3" cy="3" r="3"/></g>
<g transform="translate(696,384) scale(4.12)"><circle cx="3" cy="3" r="3"/></g>
<g transform="translate(720,384) scale(4.12)"><circle cx="3" cy="3" r="3"/></g>
<g transform="translate(744,384) scale(4.12)"><circle cx="3" cy="3" r="3"/></g>
<g transform="translate(792,384) scale(4.12)"><circle cx="3" cy="3" r="3"/></g>
<g transform="translate(816,384) scale(4.12)"><circle cx="3" cy="3" r="3"/></g>
<g transform="translate(840,384) scale(4.12)"><circle cx="3" cy="3" r="3"/></g>
<g transform="translate(888,384) scale(4.12)"><circle cx="3" cy="3" r="3"/></g>
<g transform="translate(912,384) scale(4.12)"><circle cx="3" cy="3" r="3"/></g>
<g transform="translate(48,408) scale(4.12)"><circle cx="3" cy="3" r="3"/></g>
<g transform="translate(120,408) scale(4.12)"><circle cx="3" cy="3" r="3"/></g>
<g transform="translate(144,408) scale(4.12)"><circle cx="3" cy="3" r="3"/></g>
<g transform="translate(168,408) scale(4.12)"><circle cx="3" cy="3" r="3"/></g>
<g transform="translate(216,408) scale(4.12)"><circle cx="3" cy="3" r="3"/></g>
<g transform="translate(240,408) scale(4.12)"><circle cx="3" cy="3" r="3"/></g>
<g transform="translate(264,408) scale(4.12)"><circle cx="3" cy="3" r="3"/></g>
<g transform="translate(288,408) scale(4.12)"><circle cx="3" cy="3" r="3"/></g>
<g transform="translate(312,408) scale(4.12)"><circle cx="3" cy="3" r="3"/></g>
<g transform="translate(360,408) scale(4.12)"><circle cx="3" cy="3" r="3"/></g>
<g transform="translate(456,408) scale(4.12)"><circle cx="3" cy="3" r="3"/></g>
<g transform="translate(480,408) scale(4.12)"><circle cx="3" cy="3" r="3"/></g>
<g transform="translate(504,408) scale(4.12)"><circle cx="3" cy="3" r="3"/></g>
<g transform="translate(672,408) scale(4.12)"><circle cx="3" cy="3" r="3"/></g>
<g transform="translate(696,408) scale(4.12)"><circle cx="3" cy="3" r="3"/></g>
<g transform="translate(744,408) scale(4.12)"><circle cx="3" cy="3" r="3"/></g>
<g transform="translate(120,432) scale(4.12)"><circle cx="3" cy="3" r="3"/></g>
<g transform="translate(168,432) scale(4.12)"><circle cx="3" cy="3" r="3"/></g>
<g transform="translate(192,432) scale(4.12)"><circle cx="3" cy="3" r="3"/></g>
<g transform="translate(216,432) scale(4.12)"><circle cx="3" cy="3" r="3"/></g>
<g transform="translate(240,432) scale(4.12)"><circle cx="3" cy="3" r="3"/></g>
<g transform="translate(264,432) scale(4.12)"><circle cx="3" cy="3" r="3"/></g>
<g transform="translate(384,432) scale(4.12)"><circle cx="3" cy="3" r="3"/></g>
<g transform="translate(432,432) scale(4.12)"><circle cx="3" cy="3" r="3"/></g>
<g transform="translate(456,432) scale(4.12)"><circle cx="3" cy="3" r="3"/></g>
<g transform="translate(528,432) scale(4.12)"><circle cx="3" cy="3" r="3"/></g>
<g transform="translate(576,432) scale(4.12)"><circle cx="3" cy="3" r="3"/></g>
<g transform="translate(600,432) scale(4.12)"><circle cx="3" cy="3" r="3"/></g>
<g transform="translate(648,432) scale(4.12)"><circle cx="3" cy="3" r="3"/></g>
<g transform="translate(672,432) scale(4.12)"><circle cx="3" cy="3" r="3"/></g>
<g transform="translate(744,432) scale(4.12)"><circle cx="3" cy="3" r="3"/></g>
<g transform="translate(768,432) scale(4.12)"><circle cx="3" cy="3" r="3"/></g>
<g transform="translate(816,432) scale(4.12)"><circle cx="3" cy="3" r="3"/></g>
<g transform="translate(864,432) scale(4.12)"><circle cx="3" cy="3" r="3"/></g>
<g transform="translate(888,432) scale(4.12)"><circle cx="3" cy="3" r="3"/></g>
<g transform="translate(48,456) scale(4.12)"><circle cx="3" cy="3" r="3"/></g>
<g transform="translate(240,456) scale(4.12)"><circle cx="3" cy="3" r="3"/></g>
<g transform="translate(288,456) scale(4.12)"><circle cx="3" cy="3" r="3"/></g>
<g transform="translate(384,456) scale(4.12)"><circle cx="3" cy="3" r="3"/></g>
<g transform="translate(408,456) scale(4.12)"><circle cx="3" cy="3" r="3"/></g>
<g transform="translate(456,456) scale(4.12)"><circle cx="3" cy="3" r="3"/></g>
<g transform="translate(480,456) scale(4.12)"><circle cx="3" cy="3" r="3"/></g>
<g transform="translate(528,456) scale(4.12)"><circle cx="3" cy="3" r="3"/></g>
<g transform="translate(576,456) scale(4.12)"><circle cx="3" cy="3" r="3"/></g>
<g transform="translate(624,456) scale(4.12)"><circle cx="3" cy="3" r="3"/></g>
<g transform="translate(648,456) scale(4.12)"><circle cx="3" cy="3" r="3"/></g>
<g transform="translate(720,456) scale(4.12)"><circle cx="3" cy="3" r="3"/></g>
<g transform="translate(744,456) scale(4.12)"><circle cx="3" cy="3" r="3"/></g>
<g transform="translate(840,456) scale(4.12)"><circle cx="3" cy="3" r="3"/></g>
<g transform="translate(72,480) scale(4.12)"><circle cx="3" cy="3" r="3"/></g>
<g transform="translate(192,480) scale(4.12)"><circle cx="3" cy="3" r="3"/></g>
<g transform="translate(240,480) scale(4.12)"><circle cx="3" cy="3" r="3"/></g>
<g transform="translate(312,480) scale(4.12)"><circle cx="3" cy="3" r="3"/></g>
<g transform="translate(384,480) scale(4.12)"><circle cx="3" cy="3" r="3"/></g>
<g transform="translate(408,480) scale(4.12)"><circle cx="3" cy="3" r="3"/></g>
<g transform="translate(480,480) scale(4.12)"><circle cx="3" cy="3" r="3"/></g>
<g transform="translate(528,480) scale(4.12)"><circle cx="3" cy="3" r="3"/></g>
<g transform="translate(576,480) scale(4.12)"><circle cx="3" cy="3" r="3"/></g>
<g transform="translate(672,480) scale(4.12)"><circle cx="3" cy="3" r="3"/></g>
<g transform="translate(696,480) scale(4.12)"><circle cx="3" cy="3" r="3"/></g>
<g transform="translate(720,480) scale(4.12)"><circle cx="3" cy="3" r="3"/></g>
<g transform="translate(768,480) scale(4.12)"><circle cx="3" cy="3" r="3"/></g>
<g transform="translate(792,480) scale(4.12)"><circle cx="3" cy="3" r="3"/></g>
<g transform="translate(864,480) scale(4.12)"><circle cx="3" cy="3" r="3"/></g>
<g transform="translate(888,480) scale(4.12)"><circle cx="3" cy="3" r="3"/></g>
<g transform="translate(912,480) scale(4.12)"><circle cx="3" cy="3" r="3"/></g>
<g transform="translate(48,504) scale(4.12)"><circle cx="3" cy="3" r="3"/></g>
<g transform="translate(72,504) scale(4.12)"><circle cx="3" cy="3" r="3"/></g>
<g transform="translate(168,504) scale(4.12)"><circle cx="3" cy="3" r="3"/></g>
<g transform="translate(216,504) scale(4.12)"><circle cx="3" cy="3" r="3"/></g>
<g transform="translate(264,504) scale(4.12)"><circle cx="3" cy="3" r="3"/></g>
<g transform="translate(288,504) scale(4.12)"><circle cx="3" cy="3" r="3"/></g>
<g transform="translate(312,504) scale(4.12)"><circle cx="3" cy="3" r="3"/></g>
<g transform="translate(336,504) scale(4.12)"><circle cx="3" cy="3" r="3"/></g>
<g transform="translate(360,504) scale(4.12)"><circle cx="3" cy="3" r="3"/></g>
<g transform="translate(408,504) scale(4.12)"><circle cx="3" cy="3" r="3"/></g>
<g transform="translate(456,504) scale(4.12)"><circle cx="3" cy="3" r="3"/></g>
<g transform="translate(480,504) scale(4.12)"><circle cx="3" cy="3" r="3"/></g>
<g transform="translate(600,504) scale(4.12)"><circle cx="3" cy="3" r="3"/></g>
<g transform="translate(672,504) scale(4.12)"><circle cx="3" cy="3" r="3"/></g>
<g transform="translate(696,504) scale(4.12)"><circle cx="3" cy="3" r="3"/></g>
<g transform="translate(720,504) scale(4.12)"><circle cx="3" cy="3" r="3"/></g>
<g transform="translate(744,504) scale(4.12)"><circle cx="3" cy="3" r="3"/></g>
<g transform="translate(792,504) scale(4.12)"><circle cx="3" cy="3" r="3"/></g>
<g transform="translate(816,504) scale(4.12)"><circle cx="3" cy="3" r="3"/></g>
<g transform="translate(48,528) scale(4.12)"><circle cx="3" cy="3" r="3"/></g>
<g transform="translate(72,528) scale(4.12)"><circle cx="3" cy="3" r="3"/></g>
<g transform="translate(96,528) scale(4.12)"><circle cx="3" cy="3" r="3"/></g>
<g transform="translate(120,528) scale(4.12)"><circle cx="3" cy="3" r="3"/></g>
<g transform="translate(144,528) scale(4.12)"><circle cx="3" cy="3" r="3"/></g>
<g transform="translate(168,528) scale(4.12)"><circle cx="3" cy="3" r="3"/></g>
<g transform="translate(192,528) scale(4.12)"><circle cx="3" cy="3" r="3"/></g>
<g transform="translate(216,528) scale(4.12)"><circle cx="3" cy="3" r="3"/></g>
<g transform="translate(288,528) scale(4.12)"><circle cx="3" cy="3" r="3"/></g>
<g transform="translate(312,528) scale(4.12)"><circle cx="3" cy="3" r="3"/></g>
<g transform="translate(336,528) scale(4.12)"><circle cx="3" cy="3" r="3"/></g>
<g transform="translate(360,528) scale(4.12)"><circle cx="3" cy="3" r="3"/></g>
<g transform="translate(384,528) scale(4.12)"><circle cx="3" cy="3" r="3"/></g>
<g transform="translate(408,528) scale(4.12)"><circle cx="3" cy="3" r="3"/></g>
<g transform="translate(480,528) scale(4.12)"><circle cx="3" cy="3" r="3"/></g>
<g transform="translate(504,528) scale(4.12)"><circle cx="3" cy="3" r="3"/></g>
<g transform="translate(552,528) scale(4.12)"><circle cx="3" cy="3" r="3"/></g>
<g transform="translate(576,528) scale(4.12)"><circle cx="3" cy="3" r="3"/></g>
<g transform="translate(648,528) scale(4.12)"><circle cx="3" cy="3" r="3"/></g>
<g transform="translate(672,528) scale(4.12)"><circle cx="3" cy="3" r="3"/></g>
<g transform="translate(744,528) scale(4.12)"><circle cx="3" cy="3" r="3"/></g>
<g transform="translate(768,528) scale(4.12)"><circle cx="3" cy="3" r="3"/></g>
<g transform="translate(792,528) scale(4.12)"><circle cx="3" cy="3" r="3"/></g>
<g transform="translate(816,528) scale(4.12)"><circle cx="3" cy="3" r="3"/></g>
<g transform="translate(840,528) scale(4.12)"><circle cx="3" cy="3" r="3"/></g>
<g transform="translate(864,528) scale(4.12)"><circle cx="3" cy="3" r="3"/></g>
<g transform="translate(888,528) scale(4.12)"><circle cx="3" cy="3" r="3"/></g>
<g transform="translate(912,528) scale(4.12)"><circle cx="3" cy="3" r="3"/></g>
<g transform="translate(72,552) scale(4.12)"><circle cx="3" cy="3" r="3"/></g>
<g transform="translate(96,552) scale(4.12)"><circle cx="3" cy="3" r="3"/></g>
<g transform="translate(216,552) scale(4.12)"><circle cx="3" cy="3" r="3"/></g>
<g transform="translate(240,552) scale(4.12)"><circle cx="3" cy="3" r="3"/></g>
<g transform="translate(264,552) scale(4.12)"><circle cx="3" cy="3" r="3"/></g>
<g transform="translate(288,552) scale(4.12)"><circle cx="3" cy="3" r="3"/></g>
<g transform="translate(336,552) scale(4.12)"><circle cx="3" cy="3" r="3"/></g>
<g transform="translate(360,552) scale(4.12)"><circle cx="3" cy="3" r="3"/></g>
<g transform="translate(408,552) scale(4.12)"><circle cx="3" cy="3" r="3"/></g>
<g transform="translate(456,552) scale(4.12)"><circle cx="3" cy="3" r="3"/></g>
<g transform="translate(480,552) scale(4.12)"><circle cx="3" cy="3" r="3"/></g>
<g transform="translate(528,552) scale(4.12)"><circle cx="3" cy="3" r="3"/></g>
<g transform="translate(624,552) scale(4.12)"><circle cx="3" cy="3" r="3"/></g>
<g transform="translate(792,552) scale(4.12)"><circle cx="3" cy="3" r="3"/></g>
<g transform="translate(864,552) scale(4.12)"><circle cx="3" cy="3" r="3"/></g>
<g transform="translate(48,576) scale(4.12)"><circle cx="3" cy="3" r="3"/></g>
<g transform="translate(120,576) scale(4.12)"><circle cx="3" cy="3" r="3"/></g>
<g transform="translate(192,576) scale(4.12)"><circle cx="3" cy="3" r="3"/></g>
<g transform="translate(216,576) scale(4.12)"><circle cx="3" cy="3" r="3"/></g>
<g transform="translate(240,576) scale(4.12)"><circle cx="3" cy="3" r="3"/></g>
<g transform="translate(264,576) scale(4.12)"><circle cx="3" cy="3" r="3"/></g>
<g transform="translate(288,576) scale(4.12)"><circle cx="3" cy="3" r="3"/></g>
<g transform="translate(312,576) scale(4.12)"><circle cx="3" cy="3" r="3"/></g>
<g transform="translate(360,576) scale(4.12)"><circle cx="3" cy="3" r="3"/></g>
<g transform="translate(384,576) scale(4.12)"><circle cx="3" cy="3" r="3"/></g>
<g transform="translate(480,576) scale(4.12)"><circle cx="3" cy="3" r="3"/></g>
<g transform="translate(552,576) scale(4.12)"><circle cx="3" cy="3" r="3"/></g>
<g transform="translate(576,576) scale(4.12)"><circle cx="3" cy="3" r="3"/></g>
<g transform="translate(696,576) scale(4.12)"><circle cx="3" cy="3" r="3"/></g>
<g transform="translate(768,576) scale(4.12)"><circle cx="3" cy="3" r="3"/></g>
<g transform="translate(864,576) scale(4.12)"><circle cx="3" cy="3" r="3"/></g>
<g transform="translate(888,576) scale(4.12)"><circle cx="3" cy="3" r="3"/></g>
<g transform="translate(912,576) scale(4.12)"><circle cx="3" cy="3" r="3"/></g>
<g transform="translate(72,600) scale(4.12)"><circle cx="3" cy="3" r="3"/></g>
<g transform="translate(144,600) scale(4.12)"><circle cx="3" cy="3" r="3"/></g>
<g transform="translate(168,600) scale(4.12)"><circle cx="3" cy="3" r="3"/></g>
<g transform="translate(264,600) scale(4.12)"><circle cx="3" cy="3" r="3"/></g>
<g transform="translate(360,600) scale(4.12)"><circle cx="3" cy="3" r="3"/></g>
<g transform="translate(576,600) scale(4.12)"><circle cx="3" cy="3" r="3"/></g>
<g transform="translate(600,600) scale(4.12)"><circle cx="3" cy="3" r="3"/></g>
<g transform="translate(768,600) scale(4.12)"><circle cx="3" cy="3" r="3"/></g>
<g transform="translate(792,600) scale(4.12)"><circle cx="3" cy="3" r="3"/></g>
<g transform="translate(888,600) scale(4.12)"><circle cx="3" cy="3" r="3"/></g>
<g transform="translate(912,600) scale(4.12)"><circle cx="3" cy="3" r="3"/></g>
<g transform="translate(48,624) scale(4.12)"><circle cx="3" cy="3" r="3"/></g>
<g transform="translate(192,624) scale(4.12)"><circle cx="3" cy="3" r="3"/></g>
<g transform="translate(216,624) scale(4.12)"><circle cx="3" cy="3" r="3"/></g>
<g transform="translate(264,624) scale(4.12)"><circle cx="3" cy="3" r="3"/></g>
<g transform="translate(288,624) scale(4.12)"><circle cx="3" cy="3" r="3"/></g>
<g transform="translate(336,624) scale(4.12)"><circle cx="3" cy="3" r="3"/></g>
<g transform="translate(360,624) scale(4.12)"><circle cx="3" cy="3" r="3"/></g>
<g transform="translate(408,624) scale(4.12)"><circle cx="3" cy="3" r="3"/></g>
<g transform="translate(432,624) scale(4.12)"><circle cx="3" cy="3" r="3"/></g>
<g transform="translate(528,624) scale(4.12)"><circle cx="3" cy="3" r="3"/></g>
<g transform="translate(576,624) scale(4.12)"><circle cx="3" cy="3" r="3"/></g>
<g transform="translate(600,624) scale(4.12)"><circle cx="3" cy="3" r="3"/></g>
<g transform="translate(624,624) scale(4.12)"><circle cx="3" cy="3" r="3"/></g>
<g transform="translate(768,624) scale(4.12)"><circle cx="3" cy="3" r="3"/></g>
<g transform="translate(792,624) scale(4.12)"><circle cx="3" cy="3" r="3"/></g>
<g transform="translate(816,624) scale(4.12)"><circle cx="3" cy="3" r="3"/></g>
<g transform="translate(864,624) scale(4.12)"><circle cx="3" cy="3" r="3"/></g>
<g transform="translate(912,624) scale(4.12)"><circle cx="3" cy="3" r="3"/></g>
<g transform="translate(48,648) scale(4.12)"><circle cx="3" cy="3" r="3"/></g>
<g transform="translate(120,648) scale(4.12)"><circle cx="3" cy="3" r="3"/></g>
<g transform="translate(216,648) scale(4.12)"><circle cx="3" cy="3" r="3"/></g>
<g transform="translate(240,648) scale(4.12)"><circle cx="3" cy="3" r="3"/></g>
<g transform="translate(288,648) scale(4.12)"><circle cx="3" cy="3" r="3"/></g>
<g transform="translate(312,648) scale(4.12)"><circle cx="3" cy="3" r="3"/></g>
<g transform="translate(336,648) scale(4.12)"><circle cx="3" cy="3" r="3"/></g>
<g transform="translate(360,648) scale(4.12)"><circle cx="3" cy="3" r="3"/></g>
<g transform="translate(384,648) scale(4.12)"><circle cx="3" cy="3" r="3"/></g>
<g transform="translate(456,648) scale(4.12)"><circle cx="3" cy="3" r="3"/></g>
<g transform="translate(528,648) scale(4.12)"><circle cx="3" cy="3" r="3"/></g>
<g transform="translate(552,648) scale(4.12)"><circle cx="3" cy="3" r="3"/></g>
<g transform="translate(576,648) scale(4.12)"><circle cx="3" cy="3" r="3"/></g>
<g transform="translate(672,648) scale(4.12)"><circle cx="3" cy="3" r="3"/></g>
<g transform="translate(744,648) scale(4.12)"><circle cx="3" cy="3" r="3"/></g>
<g transform="translate(768,648) scale(4.12)"><circle cx="3" cy="3" r="3"/></g>
<g transform="translate(864,648) scale(4.12)"><circle cx="3" cy="3" r="3"/></g>
<g transform="translate(888,648) scale(4.12)"><circle cx="3" cy="3" r="3"/></g>
<g transform="translate(48,672) scale(4.12)"><circle cx="3" cy="3" r="3"/></g>
<g transform="translate(96,672) scale(4.12)"><circle cx="3" cy="3" r="3"/></g>
<g transform="translate(120,672) scale(4.12)"><circle cx="3" cy="3" r="3"/></g>
<g transform="translate(144,672) scale(4.12)"><circle cx="3" cy="3" r="3"/></g>
<g transform="translate(168,672) scale(4.12)"><circle cx="3" cy="3" r="3"/></g>
<g transform="translate(192,672) scale(4.12)"><circle cx="3" cy="3" r="3"/></g>
<g transform="translate(216,672) scale(4.12)"><circle cx="3" cy="3" r="3"/></g>
<g transform="translate(264,672) scale(4.12)"><circle cx="3" cy="3" r="3"/></g>
<g transform="translate(288,672) scale(4.12)"><circle cx="3" cy="3" r="3"/></g>
<g transform="translate(336,672) scale(4.12)"><circle cx="3" cy="3" r="3"/></g>
<g transform="translate(360,672) scale(4.12)"><circle cx="3" cy="3" r="3"/></g>
<g transform="translate(384,672) scale(4.12)"><circle cx="3" cy="3" r="3"/></g>
<g transform="translate(408,672) scale(4.12)"><circle cx="3" cy="3" r="3"/></g>
<g transform="translate(480,672) scale(4.12)"><circle cx="3" cy="3" r="3"/></g>
<g transform="translate(504,672) scale(4.12)"><circle cx="3" cy="3" r="3"/></g>
<g transform="translate(576,672) scale(4.12)"><circle cx="3" cy="3" r="3"/></g>
<g transform="translate(624,672) scale(4.12)"><circle cx="3" cy="3" r="3"/></g>
<g transform="translate(648,672) scale(4.12)"><circle cx="3" cy="3" r="3"/></g>
<g transform="translate(672,672) scale(4.12)"><circle cx="3" cy="3" r="3"/></g>
<g transform="translate(696,672) scale(4.12)"><circle cx="3" cy="3" r="3"/></g>
<g transform="translate(768,672) scale(4.12)"><circle cx="3" cy="3" r="3"/></g>
<g transform="translate(792,672) scale(4.12)"><circle cx="3" cy="3" r="3"/></g>
<g transform="translate(816,672) scale(4.12)"><circle cx="3" cy="3" r="3"/></g>
<g transform="translate(912,672) scale(4.12)"><circle cx="3" cy="3" r="3"/></g>
<g transform="translate(48,696) scale(4.12)"><circle cx="3" cy="3" r="3"/></g>
<g transform="translate(120,696) scale(4.12)"><circle cx="3" cy="3" r="3"/></g>
<g transform="translate(216,696) scale(4.12)"><circle cx="3" cy="3" r="3"/></g>
<g transform="translate(240,696) scale(4.12)"><circle cx="3" cy="3" r="3"/></g>
<g transform="translate(288,696) scale(4.12)"><circle cx="3" cy="3" r="3"/></g>
<g transform="translate(360,696) scale(4.12)"><circle cx="3" cy="3" r="3"/></g>
<g transform="translate(432,696) scale(4.12)"><circle cx="3" cy="3" r="3"/></g>
<g transform="translate(480,696) scale(4.12)"><circle cx="3" cy="3" r="3"/></g>
<g transform="translate(552,696) scale(4.12)"><circle cx="3" cy="3" r="3"/></g>
<g transform="translate(600,696) scale(4.12)"><circle cx="3" cy="3" r="3"/></g>
<g transform="translate(624,696) scale(4.12)"><circle cx="3" cy="3" r="3"/></g>
<g transform="translate(696,696) scale(4.12)"><circle cx="3" cy="3" r="3"/></g>
<g transform="translate(744,696) scale(4.12)"><circle cx="3" cy="3" r="3"/></g>
<g transform="translate(888,696) scale(4.12)"><circle cx="3" cy="3" r="3"/></g>
<g transform="translate(912,696) scale(4.12)"><circle cx="3" cy="3" r="3"/></g>
<g transform="translate(48,720) scale(4.12)"><circle cx="3" cy="3" r="3"/></g>
<g transform="translate(144,720) scale(4.12)"><circle cx="3" cy="3" r="3"/></g>
<g transform="translate(168,720) scale(4.12)"><circle cx="3" cy="3" r="3"/></g>
<g transform="translate(192,720) scale(4.12)"><circle cx="3" cy="3" r="3"/></g>
<g transform="translate(240,720) scale(4.12)"><circle cx="3" cy="3" r="3"/></g>
<g transform="translate(336,720) scale(4.12)"><circle cx="3" cy="3" r="3"/></g>
<g transform="translate(360,720) scale(4.12)"><circle cx="3" cy="3" r="3"/></g>
<g transform="translate(432,720) scale(4.12)"><circle cx="3" cy="3" r="3"/></g>
<g transform="translate(480,720) scale(4.12)"><circle cx="3" cy="3" r="3"/></g>
<g transform="translate(528,720) scale(4.12)"><circle cx="3" cy="3" r="3"/></g>
<g transform="translate(600,720) scale(4.12)"><circle cx="3" cy="3" r="3"/></g>
<g transform="translate(624,720) scale(4.12)"><circle cx="3" cy="3" r="3"/></g>
<g transform="translate(648,720) scale(4.12)"><circle cx="3" cy="3" r="3"/></g>
<g transform="translate(672,720) scale(4.12)"><circle cx="3" cy="3" r="3"/></g>
<g transform="translate(696,720) scale(4.12)"><circle cx="3" cy="3" r="3"/></g>
<g transform="translate(720,720) scale(4.12)"><circle cx="3" cy="3" r="3"/></g>
<g transform="translate(744,720) scale(4.12)"><circle cx="3" cy="3" r="3"/></g>
<g transform="translate(768,720) scale(4.12)"><circle cx="3" cy="3" r="3"/></g>
<g transform="translate(792,720) scale(4.12)"><circle cx="3" cy="3" r="3"/></g>
<g transform="translate(816,720) scale(4.12)"><circle cx="3" cy="3" r="3"/></g>
<g transform="translate(864,720) scale(4.12)"><circle cx="3" cy="3" r="3"/></g>
<g transform="translate(888,720) scale(4.12)"><circle cx="3" cy="3" r="3"/></g>
<g transform="translate(912,720) scale(4.12)"><circle cx="3" cy="3" r="3"/></g>
<g transform="translate(240,744) scale(4.12)"><circle cx="3" cy="3" r="3"/></g>
<g transform="translate(264,744) scale(4.12)"><circle cx="3" cy="3" r="3"/></g>
<g transform="translate(312,744) scale(4.12)"><circle cx="3" cy="3" r="3"/></g>
<g transform="translate(360,744) scale(4.12)"><circle cx="3" cy="3" r="3"/></g>
<g transform="translate(456,744) scale(4.12)"><circle cx="3" cy="3" r="3"/></g>
<g transform="translate(480,744) scale(4.12)"><circle cx="3" cy="3" r="3"/></g>
<g transform="translate(528,744) scale(4.12)"><circle cx="3" cy="3" r="3"/></g>
<g transform="translate(600,744) scale(4.12)"><circle cx="3" cy="3" r="3"/></g>
<g transform="translate(696,744) scale(4.12)"><circle cx="3" cy="3" r="3"/></g>
<g transform="translate(720,744) scale(4.12)"><circle cx="3" cy="3" r="3"/></g>
<g transform="translate(816,744) scale(4.12)"><circle cx="3" cy="3" r="3"/></g>
<g transform="translate(312,768) scale(4.12)"><circle cx="3" cy="3" r="3"/></g>
<g transform="translate(360,768) scale(4.12)"><circle cx="3" cy="3" r="3"/></g>
<g transform="translate(384,768) scale(4.12)"><circle cx="3" cy="3" r="3"/></g>
<g transform="translate(480,768) scale(4.12)"><circle cx="3" cy="3" r="3"/></g>
<g transform="translate(528,768) scale(4.12)"><circle cx="3" cy="3" r="3"/></g>
<g transform="translate(552,768) scale(4.12)"><circle cx="3" cy="3" r="3"/></g>
<g transform="translate(648,768) scale(4.12)"><circle cx="3" cy="3" r="3"/></g>
<g transform="translate(672,768) scale(4.12)"><circle cx="3" cy="3" r="3"/></g>
<g transform="translate(720,768) scale(4.12)"><circle cx="3" cy="3" r="3"/></g>
<g transform="translate(768,768) scale(4.12)"><circle cx="3" cy="3" r="3"/></g>
<g transform="translate(816,768) scale(4.12)"><circle cx="3" cy="3" r="3"/></g>
<g transform="translate(840,768) scale(4.12)"><circle cx="3" cy="3" r="3"/></g>
<g transform="translate(912,768) scale(4.12)"><circle cx="3" cy="3" r="3"/></g>
<g transform="translate(264,792) scale(4.12)"><circle cx="3" cy="3" r="3"/></g>
<g transform="translate(288,792) scale(4.12)"><circle cx="3" cy="3" r="3"/></g>
<g transform="translate(312,792) scale(4.12)"><circle cx="3" cy="3" r="3"/></g>
<g transform="translate(360,792) scale(4.12)"><circle cx="3" cy="3" r="3"/></g>
<g transform="translate(384,792) scale(4.12)"><circle cx="3" cy="3" r="3"/></g>
<g transform="translate(408,792) scale(4.12)"><circle cx="3" cy="3" r="3"/></g>
<g transform="translate(480,792) scale(4.12)"><circle cx="3" cy="3" r="3"/></g>
<g transform="translate(504,792) scale(4.12)"><circle cx="3" cy="3" r="3"/></g>
<g transform="translate(528,792) scale(4.12)"><circle cx="3" cy="3" r="3"/></g>
<g transform="translate(552,792) scale(4.12)"><circle cx="3" cy="3" r="3"/></g>
<g transform="translate(600,792) scale(4.12)"><circle cx="3" cy="3" r="3"/></g>
<g transform="translate(624,792) scale(4.12)"><circle cx="3" cy="3" r="3"/></g>
<g transform="translate(720,792) scale(4.12)"><circle cx="3" cy="3" r="3"/></g>
<g transform="translate(816,792) scale(4.12)"><circle cx="3" cy="3" r="3"/></g>
<g transform="translate(888,792) scale(4.12)"><circle cx="3" cy="3" r="3"/></g>
<g transform="translate(240,816) scale(4.12)"><circle cx="3" cy="3" r="3"/></g>
<g transform="translate(288,816) scale(4.12)"><circle cx="3" cy="3" r="3"/></g>
<g transform="translate(312,816) scale(4.12)"><circle cx="3" cy="3" r="3"/></g>
<g transform="translate(336,816) scale(4.12)"><circle cx="3" cy="3" r="3"/></g>
<g transform="translate(360,816) scale(4.12)"><circle cx="3" cy="3" r="3"/></g>
<g transform="translate(432,816) scale(4.12)"><circle cx="3" cy="3" r="3"/></g>
<g transform="translate(480,816) scale(4.12)"><circle cx="3" cy="3" r="3"/></g>
<g transform="translate(504,816) scale(4.12)"><circle cx="3" cy="3" r="3"/></g>
<g transform="translate(528,816) scale(4.12)"><circle cx="3" cy="3" r="3"/></g>
<g transform="translate(552,816) scale(4.12)"><circle cx="3" cy="3" r="3"/></g>
<g transform="translate(576,816) scale(4.12)"><circle cx="3" cy="3" r="3"/></g>
<g transform="translate(648,816) scale(4.12)"><circle cx="3" cy="3" r="3"/></g>
<g transform="translate(696,816) scale(4.12)"><circle cx="3" cy="3" r="3"/></g>
<g transform="translate(720,816) scale(4.12)"><circle cx="3" cy="3" r="3"/></g>
<g transform="translate(744,816) scale(4.12)"><circle cx="3" cy="3" r="3"/></g>
<g transform="translate(768,816) scale(4.12)"><circle cx="3" cy="3" r="3"/></g>
<g transform="translate(792,816) scale(4.12)"><circle cx="3" cy="3" r="3"/></g>
<g transform="translate(816,816) scale(4.12)"><circle cx="3" cy="3" r="3"/></g>
<g transform="translate(864,816) scale(4.12)"><circle cx="3" cy="3" r="3"/></g>
<g transform="translate(240,840) scale(4.12)"><circle cx="3" cy="3" r="3"/></g>
<g transform="translate(264,840) scale(4.12)"><circle cx="3" cy="3" r="3"/></g>
<g transform="translate(312,840) scale(4.12)"><circle cx="3" cy="3" r="3"/></g>
<g transform="translate(360,840) scale(4.12)"><circle cx="3" cy="3" r="3"/></g>
<g transform="translate(456,840) scale(4.12)"><circle cx="3" cy="3" r="3"/></g>
<g transform="translate(480,840) scale(4.12)"><circle cx="3" cy="3" r="3"/></g>
<g transform="translate(552,840) scale(4.12)"><circle cx="3" cy="3" r="3"/></g>
<g transform="translate(576,840) scale(4.12)"><circle cx="3" cy="3" r="3"/></g>
<g transform="translate(648,840) scale(4.12)"><circle cx="3" cy="3" r="3"/></g>
<g transform="translate(672,840) scale(4.12)"><circle cx="3" cy="3" r="3"/></g>
<g transform="translate(696,840) scale(4.12)"><circle cx="3" cy="3" r="3"/></g>
<g transform="translate(768,840) scale(4.12)"><circle cx="3" cy="3" r="3"/></g>
<g transform="translate(792,840) scale(4.12)"><circle cx="3" cy="3" r="3"/></g>
<g transform="translate(816,840) scale(4.12)"><circle cx="3" cy="3" r="3"/></g>
<g transform="translate(864,840) scale(4.12)"><circle cx="3" cy="3" r="3"/></g>
<g transform="translate(240,864) scale(4.12)"><circle cx="3" cy="3" r="3"/></g>
<g transform="translate(288,864) scale(4.12)"><circle cx="3" cy="3" r="3"/></g>
<g transform="translate(336,864) scale(4.12)"><circle cx="3" cy="3" r="3"/></g>
<g transform="translate(360,864) scale(4.12)"><circle cx="3" cy="3" r="3"/></g>
<g transform="translate(432,864) scale(4.12)"><circle cx="3" cy="3" r="3"/></g>
<g transform="translate(528,864) scale(4.12)"><circle cx="3" cy="3" r="3"/></g>
<g transform="translate(552,864) scale(4.12)"><circle cx="3" cy="3" r="3"/></g>
<g transform="translate(672,864) scale(4.12)"><circle cx="3" cy="3" r="3"/></g>
<g transform="translate(720,864) scale(4.12)"><circle cx="3" cy="3" r="3"/></g>
<g transform="translate(744,864) scale(4.12)"><circle cx="3" cy="3" r="3"/></g>
<g transform="translate(792,864) scale(4.12)"><circle cx="3" cy="3" r="3"/></g>
<g transform="translate(864,864) scale(4.12)"><circle cx="3" cy="3" r="3"/></g>
<g transform="translate(912,864) scale(4.12)"><circle cx="3" cy="3" r="3"/></g>
<g transform="translate(264,888) scale(4.12)"><circle cx="3" cy="3" r="3"/></g>
<g transform="translate(312,888) scale(4.12)"><circle cx="3" cy="3" r="3"/></g>
<g transform="translate(336,888) scale(4.12)"><circle cx="3" cy="3" r="3"/></g>
<g transform="translate(432,888) scale(4.12)"><circle cx="3" cy="3" r="3"/></g>
<g transform="translate(480,888) scale(4.12)"><circle cx="3" cy="3" r="3"/></g>
<g transform="translate(600,888) scale(4.12)"><circle cx="3" cy="3" r="3"/></g>
<g transform="translate(624,888) scale(4.12)"><circle cx="3" cy="3" r="3"/></g>
<g transform="translate(672,888) scale(4.12)"><circle cx="3" cy="3" r="3"/></g>
<g transform="translate(696,888) scale(4.12)"><circle cx="3" cy="3" r="3"/></g>
<g transform="translate(720,888) scale(4.12)"><circle cx="3" cy="3" r="3"/></g>
<g transform="translate(744,888) scale(4.12)"><circle cx="3" cy="3" r="3"/></g>
<g transform="translate(768,888) scale(4.12)"><circle cx="3" cy="3" r="3"/></g>
<g transform="translate(792,888) scale(4.12)"><circle cx="3" cy="3" r="3"/></g>
<g transform="translate(912,888) scale(4.12)"><circle cx="3" cy="3" r="3"/></g>
<g transform="translate(288,912) scale(4.12)"><circle cx="3" cy="3" r="3"/></g>
<g transform="translate(312,912) scale(4.12)"><circle cx="3" cy="3" r="3"/></g>
<g transform="translate(336,912) scale(4.12)"><circle cx="3" cy="3" r="3"/></g>
<g transform="translate(408,912) scale(4.12)"><circle cx="3" cy="3" r="3"/></g>
<g transform="translate(480,912) scale(4.12)"><circle cx="3" cy="3" r="3"/></g>
<g transform="translate(528,912) scale(4.12)"><circle cx="3" cy="3" r="3"/></g>
<g transform="translate(552,912) scale(4.12)"><circle cx="3" cy="3" r="3"/></g>
<g transform="translate(576,912) scale(4.12)"><circle cx="3" cy="3" r="3"/></g>
<g transform="translate(600,912) scale(4.12)"><circle cx="3" cy="3" r="3"/></g>
<g transform="translate(624,912) scale(4.12)"><circle cx="3" cy="3" r="3"/></g>
<g transform="translate(648,912) scale(4.12)"><circle cx="3" cy="3" r="3"/></g>
<g transform="translate(672,912) scale(4.12)"><circle cx="3" cy="3" r="3"/></g>
<g transform="translate(816,912) scale(4.12)"><circle cx="3" cy="3" r="3"/></g>
<g transform="translate(840,912) scale(4.12)"><circle cx="3" cy="3" r="3"/></g>
<g transform="translate(864,912) scale(4.12)"><circle cx="3" cy="3" r="3"/></g>
<g transform="translate(888,912) scale(4.12)"><circle cx="3" cy="3" r="3"/></g>
<g transform="translate(912,912) scale(4.12)"><circle cx="3" cy="3" r="3"/></g>
<g transform="translate(48,48)"><g transform="scale(12)"><path d="M4.5,14h5.1C12,14,14,12,14,9.6V4.5C14,2,12,0,9.5,0H4.4C2,0,0,2,0,4.4v5.1C0,12,2,14,4.5,14z M12,4.8v4.4 c0,1.5-1.3,2.8-2.8,2.8H4.8C3.2,12,2,10.8,2,9.2V4.8C2,3.3,3.3,2,4.8,2h4.4C10.8,2,12,3.2,12,4.8z"/></g></g>
<g transform="translate(768,48)"><g transform="scale(12)"><path d="M4.5,14h5.1C12,14,14,12,14,9.6V4.5C14,2,12,0,9.5,0H4.4C2,0,0,2,0,4.4v5.1C0,12,2,14,4.5,14z M12,4.8v4.4 c0,1.5-1.3,2.8-2.8,2.8H4.8C3.2,12,2,10.8,2,9.2V4.8C2,3.3,3.3,2,4.8,2h4.4C10.8,2,12,3.2,12,4.8z"/></g></g>
<g transform="translate(48,768)"><g transform="scale(12)"><path d="M4.5,14h5.1C12,14,14,12,14,9.6V4.5C14,2,12,0,9.5,0H4.4C2,0,0,2,0,4.4v5.1C0,12,2,14,4.5,14z M12,4.8v4.4 c0,1.5-1.3,2.8-2.8,2.8H4.8C3.2,12,2,10.8,2,9.2V4.8C2,3.3,3.3,2,4.8,2h4.4C10.8,2,12,3.2,12,4.8z"/></g></g>
<g transform="translate(96,96)"><g transform="scale(12)"><path d="M6,1.7v2.7C6,5.2,5.2,6,4.3,6H1.7C0.7,6,0,5.3,0,4.3V1.7C0,0.8,0.8,0,1.7,0h2.7C5.3,0,6,0.7,6,1.7z"/></g></g>
<g transform="translate(816,96)"><g transform="scale(12)"><path d="M6,1.7v2.7C6,5.2,5.2,6,4.3,6H1.7C0.7,6,0,5.3,0,4.3V1.7C0,0.8,0.8,0,1.7,0h2.7C5.3,0,6,0.7,6,1.7z"/></g></g>
<g transform="translate(96,816)"><g transform="scale(12)"><path d="M6,1.7v2.7C6,5.2,5.2,6,4.3,6H1.7C0.7,6,0,5.3,0,4.3V1.7C0,0.8,0.8,0,1.7,0h2.7C5.3,0,6,0.7,6,1.7z"/></g></g>
</g></svg>
