<?xml version="1.0" encoding="utf-8"?>
<svg xmlns="http://www.w3.org/2000/svg" xmlns:xlink="http://www.w3.org/1999/xlink" xml:space="preserve" width="888" height="888" viewBox="0 0 888 888"><g fill="#007bff">
<g transform="translate(240,48) scale(4.12)"><circle cx="3" cy="3" r="3"/></g>
<g transform="translate(264,48) scale(4.12)"><circle cx="3" cy="3" r="3"/></g>
<g transform="translate(288,48) scale(4.12)"><circle cx="3" cy="3" r="3"/></g>
<g transform="translate(384,48) scale(4.12)"><circle cx="3" cy="3" r="3"/></g>
<g transform="translate(408,48) scale(4.12)"><circle cx="3" cy="3" r="3"/></g>
<g transform="translate(432,48) scale(4.12)"><circle cx="3" cy="3" r="3"/></g>
<g transform="translate(456,48) scale(4.12)"><circle cx="3" cy="3" r="3"/></g>
<g transform="translate(504,48) scale(4.12)"><circle cx="3" cy="3" r="3"/></g>
<g transform="translate(600,48) scale(4.12)"><circle cx="3" cy="3" r="3"/></g>
<g transform="translate(624,48) scale(4.12)"><circle cx="3" cy="3" r="3"/></g>
<g transform="translate(240,72) scale(4.12)"><circle cx="3" cy="3" r="3"/></g>
<g transform="translate(312,72) scale(4.12)"><circle cx="3" cy="3" r="3"/></g>
<g transform="translate(432,72) scale(4.12)"><circle cx="3" cy="3" r="3"/></g>
<g transform="translate(480,72) scale(4.12)"><circle cx="3" cy="3" r="3"/></g>
<g transform="translate(528,72) scale(4.12)"><circle cx="3" cy="3" r="3"/></g>
<g transform="translate(576,72) scale(4.12)"><circle cx="3" cy="3" r="3"/></g>
<g transform="translate(624,72) scale(4.12)"><circle cx="3" cy="3" r="3"/></g>
<g transform="translate(240,96) scale(4.12)"><circle cx="3" cy="3" r="3"/></g>
<g transform="translate(360,96) scale(4.12)"><circle cx="3" cy="3" r="3"/></g>
<g transform="translate(432,96) scale(4.12)"><circle cx="3" cy="3" r="3"/></g>
<g transform="translate(456,96) scale(4.12)"><circle cx="3" cy="3" r="3"/></g>
<g transform="translate(552,96) scale(4.12)"><circle cx="3" cy="3" r="3"/></g>
<g transform="translate(576,96) scale(4.12)"><circle cx="3" cy="3" r="3"/></g>
<g transform="translate(600,96) scale(4.12)"><circle cx="3" cy="3" r="3"/></g>
<g transform="translate(624,96) scale(4.12)"><circle cx="3" cy="3" r="3"/></g>
<g transform="translate(312,120) scale(4.12)"><circle cx="3" cy="3" r="3"/></g>
<g transform="translate(336,120) scale(4.12)"><circle cx="3" cy="3" r="3"/></g>
<g transform="translate(384,120) scale(4.12)"><circle cx="3" cy="3" r="3"/></g>
<g transform="translate(456,120) scale(4.12)"><circle cx="3" cy="3" r="3"/></g>
<g transform="translate(480,120) scale(4.12)"><circle cx="3" cy="3" r="3"/></g>
<g transform="translate(576,120) scale(4.12)"><circle cx="3" cy="3" r="3"/></g>
<g transform="translate(600,120) scale(4.12)"><circle cx="3" cy="3" r="3"/></g>
<g transform="translate(624,120) scale(4.12)"><circle cx="3" cy="3" r="3"/></g>
<g transform="translate(264,144) scale(4.12)"><circle cx="3" cy="3" r="3"/></g>
<g transform="translate(288,144) scale(4.12)"><circle cx="3" cy="3" r="3"/></g>
<g transform="translate(336,144) scale(4.12)"><circle cx="3" cy="3" r="3"/></g>
<g transform="translate(360,144) scale(4.12)"><circle cx="3" cy="3" r="3"/></g>
<g transform="translate(384,144) scale(4.12)"><circle cx="3" cy="3" r="3"/></g>
<g transform="translate(432,144) scale(4.12)"><circle cx="3" cy="3" r="3"/></g>
<g transform="translate(528,144) scale(4.12)"><circle cx="3" cy="3" r="3"/></g>
<g transform="translate(576,144) scale(4.12)"><circle cx="3" cy="3" r="3"/></g>
<g transform="translate(600,144) scale(4.12)"><circle cx="3" cy="3" r="3"/></g>
<g transform="translate(624,144) scale(4.12)"><circle cx="3" cy="3" r="3"/></g>
<g transform="translate(240,168) scale(4.12)"><circle cx="3" cy="3" r="3"/></g>
<g transform="translate(264,168) scale(4.12)"><circle cx="3" cy="3" r="3"/></g>
<g transform="translate(504,168) scale(4.12)"><circle cx="3" cy="3" r="3"/></g>
<g transform="translate(600,168) scale(4.12)"><circle cx="3" cy="3" r="3"/></g>
<g transform="translate(624,168) scale(4.12)"><circle cx="3" cy="3" r="3"/></g>
<g transform="translate(240,192) scale(4.12)"><circle cx="3" cy="3" r="3"/></g>
<g transform="translate(288,192) scale(4.12)"><circle cx="3" cy="3" r="3"/></g>
<g transform="translate(336,192) scale(4.12)"><circle cx="3" cy="3" r="3"/></g>
<g transform="translate(384,192) scale(4.12)"><circle cx="3" cy="3" r="3"/></g>
<g transform="translate(432,192) scale(4.12)"><circle cx="3" cy="3" r="3"/></g>
<g transform="translate(480,192) scale(4.12)"><circle cx="3" cy="3" r="3"/></g>
<g transform="translate(528,192) scale(4.12)"><circle cx="3" cy="3" r="3"/></g>
<g transform="translate(576,192) scale(4.12)"><circle cx="3" cy="3" r="3"/></g>
<g transform="translate(624,192) scale(4.12)"><circle cx="3" cy="3" r="3"/></g>
<g transform="translate(240,216) scale(4.12)"><circle cx="3" cy="3" r="3"/></g>
<g transform="translate(288,216) scale(4.12)"><circle cx="3" cy="3" r="3"/></g>
<g transform="translate(360,216) scale(4.12)"><circle cx="3" cy="3" r="3"/></g>
<g transform="translate(384,216) scale(4.12)"><circle cx="3" cy="3" r="3"/></g>
<g transform="translate(408,216) scale(4.12)"><circle cx="3" cy="3" r="3"/></g>
<g transform="translate(432,216) scale(4.12)"><circle cx="3" cy="3" r="3"/></g>
<g transform="translate(456,216) scale(4.12)"><circle cx="3" cy="3" r="3"/></g>
<g transform="translate(576,216) scale(4.12)"><circle cx="3" cy="3" r="3"/></g>
<g transform="translate(624,216) scale(4.12)"><circle cx="3" cy="3" r="3"/></g>
<g transform="translate(96,240) scale(4.12)"><circle cx="3" cy="3" r="3"/></g>
<g transform="translate(120,240) scale(4.12)"><circle cx="3" cy="3" r="3"/></g>
<g transform="translate(144,240) scale(4.12)"><circle cx="3" cy="3" r="3"/></g>
<g transform="translate(192,240) scale(4.12)"><circle cx="3" cy="3" r="3"/></g>
<g transform="translate(240,240) scale(4.12)"><circle cx="3" cy="3" r="3"/></g>
<g transform="translate(264,240) scale(4.12)"><circle cx="3" cy="3" r="3"/></g>
<g transform="translate(288,240) scale(4.12)"><circle cx="3" cy="3" r="3"/></g>
<g transform="translate(360,240) scale(4.12)"><circle cx="3" cy="3" r="3"/></g>
<g transform="translate(384,240) scale(4.12)"><circle cx="3" cy="3" r="3"/></g>
<g transform="translate(432,240) scale(4.12)"><circle cx="3" cy="3" r="3"/></g>
<g transform="translate(456,240) scale(4.12)"><circle cx="3" cy="3" r="3"/></g>
<g transform="translate(504,240) scale(4.12)"><circle cx="3" cy="3" r="3"/></g>
<g transform="translate(576,240) scale(4.12)"><circle cx="3" cy="3" r="3"/></g>
<g transform="translate(600,240) scale(4.12)"><circle cx="3" cy="3" r="3"/></g>
<g transform="translate(648,240) scale(4.12)"><circle cx="3" cy="3" r="3"/></g>
<g transform="translate(672,240) scale(4.12)"><circle cx="3" cy="3" r="3"/></g>
<g transform="translate(696,240) scale(4.12)"><circle cx="3" cy="3" r="3"/></g>
<g transform="translate(768,240) scale(4.12)"><circle cx="3" cy="3" r="3"/></g>
<g transform="translate(792,240) scale(4.12)"><circle cx="3" cy="3" r="3"/></g>
<g transform="translate(816,240) scale(4.12)"><circle cx="3" cy="3" r="3"/></g>
<g transform="translate(240,264) scale(4.12)"><circle cx="3" cy="3" r="3"/></g>
<g transform="translate(264,264) scale(4.12)"><circle cx="3" cy="3" r="3"/></g>
<g transform="translate(288,264) scale(4.12)"><circle cx="3" cy="3" r="3"/></g>
<g transform="translate(312,264) scale(4.12)"><circle cx="3" cy="3" r="3"/></g>
<g transform="translate(384,264) scale(4.12)"><circle cx="3" cy="3" r="3"/></g>
<g transform="translate(432,264) scale(4.12)"><circle cx="3" cy="3" r="3"/></g>
<g transform="translate(528,264) scale(4.12)"><circle cx="3" cy="3" r="3"/></g>
<g transform="translate(552,264) scale(4.12)"><circle cx="3" cy="3" r="3"/></g>
<g transform="translate(624,264) scale(4.12)"><circle cx="3" cy="3" r="3"/></g>
<g transform="translate(648,264) scale(4.12)"><circle cx="3" cy="3" r="3"/></g>
<g transform="translate(672,264) scale(4.12)"><circle cx="3" cy="3" r="3"/></g>
<g transform="translate(744,264) scale(4.12)"><circle cx="3" cy="3" r="3"/></g>
<g transform="translate(816,264) scale(4.12)"><circle cx="3" cy="3" r="3"/></g>
<g transform="translate(48,288) scale(4.12)"><circle cx="3" cy="3" r="3"/></g>
<g transform="translate(72,288) scale(4.12)"><circle cx="3" cy="3" r="3"/></g>
<g transform="translate(192,288) scale(4.12)"><circle cx="3" cy="3" r="3"/></g>
<g transform="translate(216,288) scale(4.12)"><circle cx="3" cy="3" r="3"/></g>
<g transform="translate(240,288) scale(4.12)"><circle cx="3" cy="3" r="3"/></g>
<g transform="translate(336,288) scale(4.12)"><circle cx="3" cy="3" r="3"/></g>
<g transform="translate(360,288) scale(4.12)"><circle cx="3" cy="3" r="3"/></g>
<g transform="translate(408,288) scale(4.12)"><circle cx="3" cy="3" r="3"/></g>
<g transform="translate(456,288) scale(4.12)"><circle cx="3" cy="3" r="3"/></g>
<g transform="translate(480,288) scale(4.12)"><circle cx="3" cy="3" r="3"/></g>
<g transform="translate(504,288) scale(4.12)"><circle cx="3" cy="3" r="3"/></g>
<g transform="translate(552,288) scale(4.12)"><circle cx="3" cy="3" r="3"/></g>
<g transform="translate(576,288) scale(4.12)"><circle cx="3" cy="3" r="3"/></g>
<g transform="translate(600,288) scale(4.12)"><circle cx="3" cy="3" r="3"/></g>
<g transform="translate(624,288) scale(4.12)"><circle cx="3" cy="3" r="3"/></g>
<g transform="translate(696,288) scale(4.12)"><circle cx="3" cy="3" r="3"/></g>
<g transform="translate(768,288) scale(4.12)"><circle cx="3" cy="3" r="3"/></g>
<g transform="translate(792,288) scale(4.12)"><circle cx="3" cy="3" r="3"/></g>
<g transform="translate(48,312) scale(4.12)"><circle cx="3" cy="3" r="3"/></g>
<g transform="translate(240,312) scale(4.12)"><circle cx="3" cy="3" r="3"/></g>
<g transform="translate(288,312) scale(4.12)"><circle cx="3" cy="3" r="3"/></g>
<g transform="translate(312,312) scale(4.12)"><circle cx="3" cy="3" r="3"/></g>
<g transform="translate(336,312) scale(4.12)"><circle cx="3" cy="3" r="3"/></g>
<g transform="translate(360,312) scale(4.12)"><circle cx="3" cy="3" r="3"/></g>
<g transform="translate(432,312) scale(4.12)"><circle cx="3" cy="3" r="3"/></g>
<g transform="translate(456,312) scale(4.12)"><circle cx="3" cy="3" r="3"/></g>
<g transform="translate(480,312) scale(4.12)"><circle cx="3" cy="3" r="3"/></g>
<g transform="translate(504,312) scale(4.12)"><circle cx="3" cy="3" r="3"/></g>
<g transform="translate(552,312) scale(4.12)"><circle cx="3" cy="3" r="3"/></g>
<g transform="translate(648,312) scale(4.12)"><circle cx="3" cy="3" r="3"/></g>
<g transform="translate(672,312) scale(4.12)"><circle cx="3" cy="3" r="3"/></g>
<g transform="translate(744,312) scale(4.12)"><circle cx="3" cy="3" r="3"/></g>
<g transform="translate(768,312) scale(4.12)"><circle cx="3" cy="3" r="3"/></g>
<g transform="translate(816,312) scale(4.12)"><circle cx="3" cy="3" r="3"/></g>
<g transform="translate(48,336) scale(4.12)"><circle cx="3" cy="3" r="3"/></g>
<g transform="translate(72,336) scale(4.12)"><circle cx="3" cy="3" r="3"/></g>
<g transform="translate(96,336) scale(4.12)"><circle cx="3" cy="3" r="3"/></g>
<g transform="translate(192,336) scale(4.12)"><circle cx="3" cy="3" r="3"/></g>
<g transform="translate(312,336) scale(4.12)"><circle cx="3" cy="3" r="3"/></g>
<g transform="translate(336,336) scale(4.12)"><circle cx="3" cy="3" r="3"/></g>
<g transform="translate(432,336) scale(4.12)"><circle cx="3" cy="3" r="3"/></g>
<g transform="translate(456,336) scale(4.12)"><circle cx="3" cy="3" r="3"/></g>
<g transform="translate(480,336) scale(4.12)"><circle cx="3" cy="3" r="3"/></g>
<g transform="translate(504,336) scale(4.12)"><circle cx="3" cy="3" r="3"/></g>
<g transform="translate(528,336) scale(4.12)"><circle cx="3" cy="3" r="3"/></g>
<g transform="translate(552,336) scale(4.12)"><circle cx="3" cy="3" r="3"/></g>
<g transform="translate(624,336) scale(4.12)"><circle cx="3" cy="3" r="3"/></g>
<g transform="translate(648,336) scale(4.12)"><circle cx="3" cy="3" r="3"/></g>
<g transform="translate(696,336) scale(4.12)"><circle cx="3" cy="3" r="3"/></g>
<g transform="translate(720,336) scale(4.12)"><circle cx="3" cy="3" r="3"/></g>
<g transform="translate(792,336) scale(4.12)"><circle cx="3" cy="3" r="3"/></g>
<g transform="translate(72,360) scale(4.12)"><circle cx="3" cy="3" r="3"/></g>
<g transform="translate(120,360) scale(4.12)"><circle cx="3" cy="3" r="3"/></g>
<g transform="translate(168,360) scale(4.12)"><circle cx="3" cy="3" r="3"/></g>
<g transform="translate(216,360) scale(4.12)"><circle cx="3" cy="3" r="3"/></g>
<g transform="translate(240,360) scale(4.12)"><circle cx="3" cy="3" r="3"/></g>
<g transform="translate(288,360) scale(4.12)"><circle cx="3" cy="3" r="3"/></g>
<g transform="translate(312,360) scale(4.12)"><circle cx="3" cy="3" r="3"/></g>
<g transform="translate(408,360) scale(4.12)"><circle cx="3" cy="3" r="3"/></g>
<g transform="translate(432,360) scale(4.12)"><circle cx="3" cy="3" r="3"/></g>
<g transform="translate(480,360) scale(4.12)"><circle cx="3" cy="3" r="3"/></g>
<g transform="translate(504,360) scale(4.12)"><circle cx="3" cy="3" r="3"/></g>
<g transform="translate(600,360) scale(4.12)"><circle cx="3" cy="3" r="3"/></g>
<g transform="translate(624,360) scale(4.12)"><circle cx="3" cy="3" r="3"/></g>
<g transform="translate(672,360) scale(4.12)"><circle cx="3" cy="3" r="3"/></g>
<g transform="translate(720,360) scale(4.12)"><circle cx="3" cy="3" r="3"/></g>
<g transform="translate(816,360) scale(4.12)"><circle cx="3" cy="3" r="3"/></g>
<g transform="translate(48,384) scale(4.12)"><circle cx="3" cy="3" r="3"/></g>
<g transform="translate(120,384) scale(4.12)"><circle cx="3" cy="3" r="3"/></g>
<g transform="translate(168,384) scale(4.12)"><circle cx="3" cy="3" r="3"/></g>
<g transform="translate(192,384) scale(4.12)"><circle cx="3" cy="3" r="3"/></g>
<g transform="translate(408,384) scale(4.12)"><circle cx="3" cy="3" r="3"/></g>
<g transform="translate(456,384) scale(4.12)"><circle cx="3" cy="3" r="3"/></g>
<g transform="translate(480,384) scale(4.12)"><circle cx="3" cy="3" r="3"/></g>
<g transform="translate(504,384) scale(4.12)"><circle cx="3" cy="3" r="3"/></g>
<g transform="translate(576,384) scale(4.12)"><circle cx="3" cy="3" r="3"/></g>
<g transform="translate(648,384) scale(4.12)"><circle cx="3" cy="3" r="3"/></g>
<g transform="translate(672,384) scale(4.12)"><circle cx="3" cy="3" r="3"/></g>
<g transform="translate(720,384) scale(4.12)"><circle cx="3" cy="3" r="3"/></g>
<g transform="translate(768,384) scale(4.12)"><circle cx="3" cy="3" r="3"/></g>
<g transform="translate(792,384) scale(4.12)"><circle cx="3" cy="3" r="3"/></g>
<g transform="translate(72,408) scale(4.12)"><circle cx="3" cy="3" r="3"/></g>
<g transform="translate(216,408) scale(4.12)"><circle cx="3" cy="3" r="3"/></g>
<g transform="translate(288,408) scale(4.12)"><circle cx="3" cy="3" r="3"/></g>
<g transform="translate(312,408) scale(4.12)"><circle cx="3" cy="3" r="3"/></g>
<g transform="translate(384,408) scale(4.12)"><circle cx="3" cy="3" r="3"/></g>
<g transform="translate(456,408) scale(4.12)"><circle cx="3" cy="3" r="3"/></g>
<g transform="translate(480,408) scale(4.12)"><circle cx="3" cy="3" r="3"/></g>
<g transform="translate(552,408) scale(4.12)"><circle cx="3" cy="3" r="3"/></g>
<g transform="translate(576,408) scale(4.12)"><circle cx="3" cy="3" r="3"/></g>
<g transform="translate(648,408) scale(4.12)"><circle cx="3" cy="3" r="3"/></g>
<g transform="translate(696,408) scale(4.12)"><circle cx="3" cy="3" r="3"/></g>
<g transform="translate(720,408) scale(4.12)"><circle cx="3" cy="3" r="3"/></g>
<g transform="translate(792,408) scale(4.12)"><circle cx="3" cy="3" r="3"/></g>
<g transform="translate(816,408) scale(4.12)"><circle cx="3" cy="3" r="3"/></g>
<g transform="translate(48,432) scale(4.12)"><circle cx="3" cy="3" r="3"/></g>
<g transform="translate(144,432) scale(4.12)"><circle cx="3" cy="3" r="3"/></g>
<g transform="translate(192,432) scale(4.12)"><circle cx="3" cy="3" r="3"/></g>
<g transform="translate(264,432) scale(4.12)"><circle cx="3" cy="3" r="3"/></g>
<g transform="translate(288,432) scale(4.12)"><circle cx="3" cy="3" r="3"/></g>
<g transform="translate(336,432) scale(4.12)"><circle cx="3" cy="3" r="3"/></g>
<g transform="translate(408,432) scale(4.12)"><circle cx="3" cy="3" r="3"/></g>
<g transform="translate(480,432) scale(4.12)"><circle cx="3" cy="3" r="3"/></g>
<g transform="translate(504,432) scale(4.12)"><circle cx="3" cy="3" r="3"/></g>
<g transform="translate(528,432) scale(4.12)"><circle cx="3" cy="3" r="3"/></g>
<g transform="translate(600,432) scale(4.12)"><circle cx="3" cy="3" r="3"/></g>
<g transform="translate(696,432) scale(4.12)"><circle cx="3" cy="3" r="3"/></g>
<g transform="translate(768,432) scale(4.12)"><circle cx="3" cy="3" r="3"/></g>
<g transform="translate(48,456) scale(4.12)"><circle cx="3" cy="3" r="3"/></g>
<g transform="translate(144,456) scale(4.12)"><circle cx="3" cy="3" r="3"/></g>
<g transform="translate(168,456) scale(4.12)"><circle cx="3" cy="3" r="3"/></g>
<g transform="translate(216,456) scale(4.12)"><circle cx="3" cy="3" r="3"/></g>
<g transform="translate(240,456) scale(4.12)"><circle cx="3" cy="3" r="3"/></g>
<g transform="translate(288,456) scale(4.12)"><circle cx="3" cy="3" r="3"/></g>
<g transform="translate(312,456) scale(4.12)"><circle cx="3" cy="3" r="3"/></g>
<g transform="translate(360,456) scale(4.12)"><circle cx="3" cy="3" r="3"/></g>
<g transform="translate(408,456) scale(4.12)"><circle cx="3" cy="3" r="3"/></g>
<g transform="translate(432,456) scale(4.12)"><circle cx="3" cy="3" r="3"/></g>
<g transform="translate(456,456) scale(4.12)"><circle cx="3" cy="3" r="3"/></g>
<g transform="translate(480,456) scale(4.12)"><circle cx="3" cy="3" r="3"/></g>
<g transform="translate(504,456) scale(4.12)"><circle cx="3" cy="3" r="3"/></g>
<g transform="translate(552,456) scale(4.12)"><circle cx="3" cy="3" r="3"/></g>
<g transform="translate(600,456) scale(4.12)"><circle cx="3" cy="3" r="3"/></g>
<g transform="translate(624,456) scale(4.12)"><circle cx="3" cy="3" r="3"/></g>
<g transform="translate(672,456) scale(4.12)"><circle cx="3" cy="3" r="3"/></g>
<g transform="translate(696,456) scale(4.12)"><circle cx="3" cy="3" r="3"/></g>
<g transform="translate(792,456) scale(4.12)"><circle cx="3" cy="3" r="3"/></g>
<g transform="translate(144,480) scale(4.12)"><circle cx="3" cy="3" r="3"/></g>
<g transform="translate(192,480) scale(4.12)"><circle cx="3" cy="3" r="3"/></g>
<g transform="translate(240,480) scale(4.12)"><circle cx="3" cy="3" r="3"/></g>
<g transform="translate(288,480) scale(4.12)"><circle cx="3" cy="3" r="3"/></g>
<g transform="translate(312,480) scale(4.12)"><circle cx="3" cy="3" r="3"/></g>
<g transform="translate(360,480) scale(4.12)"><circle cx="3" cy="3" r="3"/></g>
<g transform="translate(384,480) scale(4.12)"><circle cx="3" cy="3" r="3"/></g>
<g transform="translate(432,480) scale(4.12)"><circle cx="3" cy="3" r="3"/></g>
<g transform="translate(456,480) scale(4.12)"><circle cx="3" cy="3" r="3"/></g>
<g transform="translate(480,480) scale(4.12)"><circle cx="3" cy="3" r="3"/></g>
<g transform="translate(504,480) scale(4.12)"><circle cx="3" cy="3" r="3"/></g>
<g transform="translate(576,480) scale(4.12)"><circle cx="3" cy="3" r="3"/></g>
<g transform="translate(696,480) scale(4.12)"><circle cx="3" cy="3" r="3"/></g>
<g transform="translate(768,480) scale(4.12)"><circle cx="3" cy="3" r="3"/></g>
<g transform="translate(96,504) scale(4.12)"><circle cx="3" cy="3" r="3"/></g>
<g transform="translate(120,504) scale(4.12)"><circle cx="3" cy="3" r="3"/></g>
<g transform="translate(144,504) scale(4.12)"><circle cx="3" cy="3" r="3"/></g>
<g transform="translate(216,504) scale(4.12)"><circle cx="3" cy="3" r="3"/></g>
<g transform="translate(264,504) scale(4.12)"><circle cx="3" cy="3" r="3"/></g>
<g transform="translate(288,504) scale(4.12)"><circle cx="3" cy="3" r="3"/></g>
<g transform="translate(312,504) scale(4.12)"><circle cx="3" cy="3" r="3"/></g>
<g transform="translate(360,504) scale(4.12)"><circle cx="3" cy="3" r="3"/></g>
<g transform="translate(384,504) scale(4.12)"><circle cx="3" cy="3" r="3"/></g>
<g transform="translate(408,504) scale(4.12)"><circle cx="3" cy="3" r="3"/></g>
<g transform="translate(432,504) scale(4.12)"><circle cx="3" cy="3" r="3"/></g>
<g transform="translate(456,504) scale(4.12)"><circle cx="3" cy="3" r="3"/></g>
<g transform="translate(480,504) scale(4.12)"><circle cx="3" cy="3" r="3"/></g>
<g transform="translate(528,504) scale(4.12)"><circle cx="3" cy="3" r="3"/></g>
<g transform="translate(552,504) scale(4.12)"><circle cx="3" cy="3" r="3"/></g>
<g transform="translate(576,504) scale(4.12)"><circle cx="3" cy="3" r="3"/></g>
<g transform="translate(600,504) scale(4.12)"><circle cx="3" cy="3" r="3"/></g>
<g transform="translate(624,504) scale(4.12)"><circle cx="3" cy="3" r="3"/></g>
<g transform="translate(672,504) scale(4.12)"><circle cx="3" cy="3" r="3"/></g>
<g transform="translate(696,504) scale(4.12)"><circle cx="3" cy="3" r="3"/></g>
<g transform="translate(744,504) scale(4.12)"><circle cx="3" cy="3" r="3"/></g>
<g transform="translate(768,504) scale(4.12)"><circle cx="3" cy="3" r="3"/></g>
<g transform="translate(792,504) scale(4.12)"><circle cx="3" cy="3" r="3"/></g>
<g transform="translate(48,528) scale(4.12)"><circle cx="3" cy="3" r="3"/></g>
<g transform="translate(120,528) scale(4.12)"><circle cx="3" cy="3" r="3"/></g>
<g transform="translate(144,528) scale(4.12)"><circle cx="3" cy="3" r="3"/></g>
<g transform="translate(168,528) scale(4.12)"><circle cx="3" cy="3" r="3"/></g>
<g transform="translate(192,528) scale(4.12)"><circle cx="3" cy="3" r="3"/></g>
<g transform="translate(240,528) scale(4.12)"><circle cx="3" cy="3" r="3"/></g>
<g transform="translate(336,528) scale(4.12)"><circle cx="3" cy="3" r="3"/></g>
<g transform="translate(384,528) scale(4.12)"><circle cx="3" cy="3" r="3"/></g>
<g transform="translate(432,528) scale(4.12)"><circle cx="3" cy="3" r="3"/></g>
<g transform="translate(456,528) scale(4.12)"><circle cx="3" cy="3" r="3"/></g>
<g transform="translate(480,528) scale(4.12)"><circle cx="3" cy="3" r="3"/></g>
<g transform="translate(576,528) scale(4.12)"><circle cx="3" cy="3" r="3"/></g>
<g transform="translate(624,528) scale(4.12)"><circle cx="3" cy="3" r="3"/></g>
<g transform="translate(696,528) scale(4.12)"><circle cx="3" cy="3" r="3"/></g>
<g transform="translate(720,528) scale(4.12)"><circle cx="3" cy="3" r="3"/></g>
<g transform="translate(744,528) scale(4.12)"><circle cx="3" cy="3" r="3"/></g>
<g transform="translate(816,528) scale(4.12)"><circle cx="3" cy="3" r="3"/></g>
<g transform="translate(48,552) scale(4.12)"><circle cx="3" cy="3" r="3"/></g>
<g transform="translate(168,552) scale(4.12)"><circle cx="3" cy="3" r="3"/></g>
<g transform="translate(216,552) scale(4.12)"><circle cx="3" cy="3" r="3"/></g>
<g transform="translate(264,552) scale(4.12)"><circle cx="3" cy="3" r="3"/></g>
<g transform="translate(288,552) scale(4.12)"><circle cx="3" cy="3" r="3"/></g>
<g transform="translate(360,552) scale(4.12)"><circle cx="3" cy="3" r="3"/></g>
<g transform="translate(408,552) scale(4.12)"><circle cx="3" cy="3" r="3"/></g>
<g transform="translate(456,552) scale(4.12)"><circle cx="3" cy="3" r="3"/></g>
<g transform="translate(480,552) scale(4.12)"><circle cx="3" cy="3" r="3"/></g>
<g transform="translate(504,552) scale(4.12)"><circle cx="3" cy="3" r="3"/></g>
<g transform="translate(528,552) scale(4.12)"><circle cx="3" cy="3" r="3"/></g>
<g transform="translate(552,552) scale(4.12)"><circle cx="3" cy="3" r="3"/></g>
<g transform="translate(600,552) scale(4.12)"><circle cx="3" cy="3" r="3"/></g>
<g transform="translate(624,552) scale(4.12)"><circle cx="3" cy="3" r="3"/></g>
<g transform="translate(816,552) scale(4.12)"><circle cx="3" cy="3" r="3"/></g>
<g transform="translate(48,576) scale(4.12)"><circle cx="3" cy="3" r="3"/></g>
<g transform="translate(96,576) scale(4.12)"><circle cx="3" cy="3" r="3"/></g>
<g transform="translate(192,576) scale(4.12)"><circle cx="3" cy="3" r="3"/></g>
<g transform="translate(216,576) scale(4.12)"><circle cx="3" cy="3" r="3"/></g>
<g transform="translate(336,576) scale(4.12)"><circle cx="3" cy="3" r="3"/></g>
<g transform="translate(360,576) scale(4.12)"><circle cx="3" cy="3" r="3"/></g>
<g transform="translate(384,576) scale(4.12)"><circle cx="3" cy="3" r="3"/></g>
<g transform="translate(528,576) scale(4.12)"><circle cx="3" cy="3" r="3"/></g>
<g transform="translate(624,576) scale(4.12)"><circle cx="3" cy="3" r="3"/></g>
<g transform="translate(696,576) scale(4.12)"><circle cx="3" cy="3" r="3"/></g>
<g transform="translate(720,576) scale(4.12)"><circle cx="3" cy="3" r="3"/></g>
<g transform="translate(744,576) scale(4.12)"><circle cx="3" cy="3" r="3"/></g>
<g transform="translate(792,576) scale(4.12)"><circle cx="3" cy="3" r="3"/></g>
<g transform="translate(48,600) scale(4.12)"><circle cx="3" cy="3" r="3"/></g>
<g transform="translate(120,600) scale(4.12)"><circle cx="3" cy="3" r="3"/></g>
<g transform="translate(144,600) scale(4.12)"><circle cx="3" cy="3" r="3"/></g>
<g transform="translate(168,600) scale(4.12)"><circle cx="3" cy="3" r="3"/></g>
<g transform="translate(240,600) scale(4.12)"><circle cx="3" cy="3" r="3"/></g>
<g transform="translate(264,600) scale(4.12)"><circle cx="3" cy="3" r="3"/></g>
<g transform="translate(336,600) scale(4.12)"><circle cx="3" cy="3" r="3"/></g>
<g transform="translate(360,600) scale(4.12)"><circle cx="3" cy="3" r="3"/></g>
<g transform="translate(384,600) scale(4.12)"><circle cx="3" cy="3" r="3"/></g>
<g transform="translate(480,600) scale(4.12)"><circle cx="3" cy="3" r="3"/></g>
<g transform="translate(528,600) scale(4.12)"><circle cx="3" cy="3" r="3"/></g>
<g transform="translate(576,600) scale(4.12)"><circle cx="3" cy="3" r="3"/></g>
<g transform="translate(600,600) scale(4.12)"><circle cx="3" cy="3" r="3"/></g>
<g transform="translate(624,600) scale(4.12)"><circle cx="3" cy="3" r="3"/></g>
<g transform="translate(720,600) scale(4.12)"><circle cx="3" cy="3" r="3"/></g>
<g transform="translate(768,600) scale(4.12)"><circle cx="3" cy="3" r="3"/></g>
<g transform="translate(792,600) scale(4.12)"><circle cx="3" cy="3" r="3"/></g>
<g transform="translate(48,624) scale(4.12)"><circle cx="3" cy="3" r="3"/></g>
<g transform="translate(120,624) scale(4.12)"><circle cx="3" cy="3" r="3"/></g>
<g transform="translate(144,624) scale(4.12)"><circle cx="3" cy="3" r="3"/></g>
<g transform="translate(192,624) scale(4.12)"><circle cx="3" cy="3" r="3"/></g>
<g transform="translate(264,624) scale(4.12)"><circle cx="3" cy="3" r="3"/></g>
<g transform="translate(288,624) scale(4.12)"><circle cx="3" cy="3" r="3"/></g>
<g transform="translate(312,624) scale(4.12)"><circle cx="3" cy="3" r="3"/></g>
<g transform="translate(336,624) scale(4.12)"><circle cx="3" cy="3" r="3"/></g>
<g transform="translate(360,624) scale(4.12)"><circle cx="3" cy="3" r="3"/></g>
<g transform="translate(408,624) scale(4.12)"><circle cx="3" cy="3" r="3"/></g>
<g transform="translate(528,624) scale(4.12)"><circle cx="3" cy="3" r="3"/></g>
<g transform="translate(552,624) scale(4.12)"><circle cx="3" cy="3" r="3"/></g>
<g transform="translate(576,624) scale(4.12)"><circle cx="3" cy="3" r="3"/></g>
<g transform="translate(624,624) scale(4.12)"><circle cx="3" cy="3" r="3"/></g>
<g transform="translate(648,624) scale(4.12)"><circle cx="3" cy="3" r="3"/></g>
<g transform="translate(672,624) scale(4.12)"><circle cx="3" cy="3" r="3"/></g>
<g transform="translate(696,624) scale(4.12)"><circle cx="3" cy="3" r="3"/></g>
<g transform="translate(720,624) scale(4.12)"><circle cx="3" cy="3" r="3"/></g>
<g transform="translate(240,648) scale(4.12)"><circle cx="3" cy="3" r="3"/></g>
<g transform="translate(312,648) scale(4.12)"><circle cx="3" cy="3" r="3"/></g>
<g transform="translate(360,648) scale(4.12)"><circle cx="3" cy="3" r="3"/></g>
<g transform="translate(408,648) scale(4.12)"><circle cx="3" cy="3" r="3"/></g>
<g transform="translate(456,648) scale(4.12)"><circle cx="3" cy="3" r="3"/></g>
<g transform="translate(480,648) scale(4.12)"><circle cx="3" cy="3" r="3"/></g>
<g transform="translate(504,648) scale(4.12)"><circle cx="3" cy="3" r="3"/></g>
<g transform="translate(528,648) scale(4.12)"><circle cx="3" cy="3" r="3"/></g>
<g transform="translate(576,648) scale(4.12)"><circle cx="3" cy="3" r="3"/></g>
<g transform="translate(624,648) scale(4.12)"><circle cx="3" cy="3" r="3"/></g>
<g transform="translate(720,648) scale(4.12)"><circle cx="3" cy="3" r="3"/></g>
<g transform="translate(744,648) scale(4.12)"><circle cx="3" cy="3" r="3"/></g>
<g transform="translate(792,648) scale(4.12)"><circle cx="3" cy="3" r="3"/></g>
<g transform="translate(816,648) scale(4.12)"><circle cx="3" cy="3" r="3"/></g>
<g transform="translate(336,672) scale(4.12)"><circle cx="3" cy="3" r="3"/></g>
<g transform="translate(360,672) scale(4.12)"><circle cx="3" cy="3" r="3"/></g>
<g transform="translate(408,672) scale(4.12)"><circle cx="3" cy="3" r="3"/></g>
<g transform="translate(432,672) scale(4.12)"><circle cx="3" cy="3" r="3"/></g>
<g transform="translate(456,672) scale(4.12)"><circle cx="3" cy="3" r="3"/></g>
<g transform="translate(480,672) scale(4.12)"><circle cx="3" cy="3" r="3"/></g>
<g transform="translate(504,672) scale(4.12)"><circle cx="3" cy="3" r="3"/></g>
<g transform="translate(576,672) scale(4.12)"><circle cx="3" cy="3" r="3"/></g>
<g transform="translate(624,672) scale(4.12)"><circle cx="3" cy="3" r="3"/></g>
<g transform="translate(672,672) scale(4.12)"><circle cx="3" cy="3" r="3"/></g>
<g transform="translate(720,672) scale(4.12)"><circle cx="3" cy="3" r="3"/></g>
<g transform="translate(768,672) scale(4.12)"><circle cx="3" cy="3" r="3"/></g>
<g transform="translate(792,672) scale(4.12)"><circle cx="3" cy="3" r="3"/></g>
<g transform="translate(288,696) scale(4.12)"><circle cx="3" cy="3" r="3"/></g>
<g transform="translate(336,696) scale(4.12)"><circle cx="3" cy="3" r="3"/></g>
<g transform="translate(360,696) scale(4.12)"><circle cx="3" cy="3" r="3"/></g>
<g transform="translate(432,696) scale(4.12)"><circle cx="3" cy="3" r="3"/></g>
<g transform="translate(480,696) scale(4.12)"><circle cx="3" cy="3" r="3"/></g>
<g transform="translate(504,696) scale(4.12)"><circle cx="3" cy="3" r="3"/></g>
<g transform="translate(624,696) scale(4.12)"><circle cx="3" cy="3" r="3"/></g>
<g transform="translate(720,696) scale(4.12)"><circle cx="3" cy="3" r="3"/></g>
<g transform="translate(768,696) scale(4.12)"><circle cx="3" cy="3" r="3"/></g>
<g transform="translate(792,696) scale(4.12)"><circle cx="3" cy="3" r="3"/></g>
<g transform="translate(816,696) scale(4.12)"><circle cx="3" cy="3" r="3"/></g>
<g transform="translate(240,720) scale(4.12)"><circle cx="3" cy="3" r="3"/></g>
<g transform="translate(288,720) scale(4.12)"><circle cx="3" cy="3" r="3"/></g>
<g transform="translate(312,720) scale(4.12)"><circle cx="3" cy="3" r="3"/></g>
<g transform="translate(336,720) scale(4.12)"><circle cx="3" cy="3" r="3"/></g>
<g transform="translate(408,720) scale(4.12)"><circle cx="3" cy="3" r="3"/></g>
<g transform="translate(432,720) scale(4.12)"><circle cx="3" cy="3" r="3"/></g>
<g transform="translate(456,720) scale(4.12)"><circle cx="3" cy="3" r="3"/></g>
<g transform="translate(552,720) scale(4.12)"><circle cx="3" cy="3" r="3"/></g>
<g transform="translate(576,720) scale(4.12)"><circle cx="3" cy="3" r="3"/></g>
<g transform="translate(624,720) scale(4.12)"><circle cx="3" cy="3" r="3"/></g>
<g transform="translate(648,720) scale(4.12)"><circle cx="3" cy="3" r="3"/></g>
<g transform="translate(672,720) scale(4.12)"><circle cx="3" cy="3" r="3"/></g>
<g transform="translate(696,720) scale(4.12)"><circle cx="3" cy="3" r="3"/></g>
<g transform="translate(720,720) scale(4.12)"><circle cx="3" cy="3" r="3"/></g>
<g transform="translate(792,720) scale(4.12)"><circle cx="3" cy="3" r="3"/></g>
<g transform="translate(816,720) scale(4.12)"><circle cx="3" cy="3" r="3"/></g>
<g transform="translate(240,744) scale(4.12)"><circle cx="3" cy="3" r="3"/></g>
<g transform="translate(264,744) scale(4.12)"><circle cx="3" cy="3" r="3"/></g>
<g transform="translate(288,744) scale(4.12)"><circle cx="3" cy="3" r="3"/></g>
<g transform="translate(336,744) scale(4.12)"><circle cx="3" cy="3" r="3"/></g>
<g transform="translate(360,744) scale(4.12)"><circle cx="3" cy="3" r="3"/></g>
<g transform="translate(432,744) scale(4.12)"><circle cx="3" cy="3" r="3"/></g>
<g transform="translate(456,744) scale(4.12)"><circle cx="3" cy="3" r="3"/></g>
<g transform="translate(480,744) scale(4.12)"><circle cx="3" cy="3" r="3"/></g>
<g transform="translate(504,744) scale(4.12)"><circle cx="3" cy="3" r="3"/></g>
<g transform="translate(552,744) scale(4.12)"><circle cx="3" cy="3" r="3"/></g>
<g transform="translate(648,744) scale(4.12)"><circle cx="3" cy="3" r="3"/></g>
<g transform="translate(720,744) scale(4.12)"><circle cx="3" cy="3" r="3"/></g>
<g transform="translate(768,744) scale(4.12)"><circle cx="3" cy="3" r="3"/></g>
<g transform="translate(792,744) scale(4.12)"><circle cx="3" cy="3" r="3"/></g>
<g transform="translate(240,768) scale(4.12)"><circle cx="3" cy="3" r="3"/></g>
<g transform="translate(336,768) scale(4.12)"><circle cx="3" cy="3" r="3"/></g>
<g transform="translate(384,768) scale(4.12)"><circle cx="3" cy="3" r="3"/></g>
<g transform="translate(408,768) scale(4.12)"><circle cx="3" cy="3" r="3"/></g>
<g transform="translate(432,768) scale(4.12)"><circle cx="3" cy="3" r="3"/></g>
<g transform="translate(480,768) scale(4.12)"><circle cx="3" cy="3" r="3"/></g>
<g transform="translate(528,768) scale(4.12)"><circle cx="3" cy="3" r="3"/></g>
<g transform="translate(624,768) scale(4.12)"><circle cx="3" cy="3" r="3"/></g>
<g transform="translate(648,768) scale(4.12)"><circle cx="3" cy="3" r="3"/></g>
<g transform="translate(672,768) scale(4.12)"><circle cx="3" cy="3" r="3"/></g>
<g transform="translate(768,768) scale(4.12)"><circle cx="3" cy="3" r="3"/></g>
<g transform="translate(264,792) scale(4.12)"><circle cx="3" cy="3" r="3"/></g>
<g transform="translate(288,792) scale(4.12)"><circle cx="3" cy="3" r="3"/></g>
<g transform="translate(360,792) scale(4.12)"><circle cx="3" cy="3" r="3"/></g>
<g transform="translate(456,792) scale(4.12)"><circle cx="3" cy="3" r="3"/></g>
<g transform="translate(480,792) scale(4.12)"><circle cx="3" cy="3" r="3"/></g>
<g transform="translate(504,792) scale(4.12)"><circle cx="3" cy="3" r="3"/></g>
<g transform="translate(528,792) scale(4.12)"><circle cx="3" cy="3" r="3"/></g>
<g transform="translate(648,792) scale(4.12)"><circle cx="3" cy="3" r="3"/></g>
<g transform="translate(672,792) scale(4.12)"><circle cx="3" cy="3" r="3"/></g>
<g transform="translate(696,792) scale(4.12)"><circle cx="3" cy="3" r="3"/></g>
<g transform="translate(768,792) scale(4.12)"><circle cx="3" cy="3" r="3"/></g>
<g transform="translate(264,816) scale(4.12)"><circle cx="3" cy="3" r="3"/></g>
<g transform="translate(288,816) scale(4.12)"><circle cx="3" cy="3" r="3"/></g>
<g transform="translate(408,816) scale(4.12)"><circle cx="3" cy="3" r="3"/></g>
<g transform="translate(432,816) scale(4.12)"><circle cx="3" cy="3" r="3"/></g>
<g transform="translate(456,816) scale(4.12)"><circle cx="3" cy="3" r="3"/></g>
<g transform="translate(480,816) scale(4.12)"><circle cx="3" cy="3" r="3"/></g>
<g transform="translate(528,816) scale(4.12)"><circle cx="3" cy="3" r="3"/></g>
<g transform="translate(576,816) scale(4.12)"><circle cx="3" cy="3" r="3"/></g>
<g transform="translate(600,816) scale(4.12)"><circle cx="3" cy="3" r="3"/></g>
<g transform="translate(624,816) scale(4.12)"><circle cx="3" cy="3" r="3"/></g>
<g transform="translate(648,816) scale(4.12)"><circle cx="3" cy="3" r="3"/></g>
<g transform="translate(672,816) scale(4.12)"><circle cx="3" cy="3" r="3"/></g>
<g transform="translate(792,816) scale(4.12)"><circle cx="3" cy="3" r="3"/></g>
<g transform="translate(48,48)"><g transform="scale(12)"><path d="M4.5,14h5.1C12,14,14,12,14,9.6V4.5C14,2,12,0,9.5,0H4.4C2,0,0,2,0,4.4v5.1C0,12,2,14,4.5,14z M12,4.8v4.4 c0,1.5-1.3,2.8-2.8,2.8H4.8C3.2,12,2,10.8,2,9.2V4.8C2,3.3,3.3,2,4.8,2h4.4C10.8,2,12,3.2,12,4.8z"/></g></g>
<g transform="translate(672,48)"><g transform="scale(12)"><path d="M4.5,14h5.1C12,14,14,12,14,9.6V4.5C14,2,12,0,9.5,0H4.4C2,0,0,2,0,4.4v5.1C0,12,2,14,4.5,14z M12,4.8v4.4 c0,1.5-1.3,2.8-2.8,2.8H4.8C3.2,12,2,10.8,2,9.2V4.8C2,3.3,3.3,2,4.8,2h4.4C10.8,2,12,3.2,12,4.8z"/></g></g>
<g transform="translate(48,672)"><g transform="scale(12)"><path d="M4.5,14h5.1C12,14,14,12,14,9.6V4.5C14,2,12,0,9.5,0H4.4C2,0,0,2,0,4.4v5.1C0,12,2,14,4.5,14z M12,4.8v4.4 c0,1.5-1.3,2.8-2.8,2.8H4.8C3.2,12,2,10.8,2,9.2V4.8C2,3.3,3.3,2,4.8,2h4.4C10.8,2,12,3.2,12,4.8z"/></g></g>
<g transform="translate(96,96)"><g transform="scale(12)"><path d="M6,1.7v2.7C6,5.2,5.2,6,4.3,6H1.7C0.7,6,0,5.3,0,4.3V1.7C0,0.8,0.8,0,1.7,0h2.7C5.3,0,6,0.7,6,1.7z"/></g></g>
<g transform="translate(720,96)"><g transform="scale(12)"><path d="M6,1.7v2.7C6,5.2,5.2,6,4.3,6H1.7C0.7,6,0,5.3,0,4.3V1.7C0,0.8,0.8,0,1.7,0h2.7C5.3,0,6,0.7,6,1.7z"/></g></g>
<g transform="translate(96,720)"><g transform="scale(12)"><path d="M6,1.7v2.7C6,5.2,5.2,6,4.3,6H1.7C0.7,6,0,5.3,0,4.3V1.7C0,0.8,0.8,0,1.7,0h2.7C5.3,0,6,0.7,6,1.7z"/></g></g>
</g></svg>
